<svg width="47" height="45" viewBox="0 0 47 45" fill="none" xmlns="http://www.w3.org/2000/svg">
<path d="M0.760986 19.6873C0.760986 21.2431 2.0329 22.5 3.60724 22.5C5.18157 22.5 6.45349 21.2431 6.45349 19.6873C6.45349 15.0286 10.2781 11.249 14.9922 11.249H29.2235V14.0618C29.2235 15.1957 29.9173 16.2241 30.9846 16.6636C32.0519 17.103 33.2705 16.8569 34.0888 16.0571L39.7813 10.4316C40.8931 9.33284 40.8931 7.54851 39.7813 6.44978L34.0888 0.82429C33.2705 0.0156263 32.0519 -0.221699 30.9846 0.217792C29.9173 0.657284 29.2235 1.6769 29.2235 2.81079V5.62354H14.9922C7.12947 5.62354 0.760986 11.9171 0.760986 19.6873ZM46.301 25.3127C46.301 23.7569 45.0291 22.5 43.4547 22.5C41.8804 22.5 40.6085 23.7569 40.6085 25.3127C40.6085 29.9714 36.7838 33.751 32.0697 33.751H17.8385V30.9382C17.8385 29.8043 17.1447 28.7759 16.0774 28.3364C15.01 27.897 13.7915 28.1431 12.9732 28.9429L7.28068 34.5684C6.16886 35.6672 6.16886 37.4515 7.28068 38.5502L12.9732 44.1757C13.7915 44.9844 15.01 45.2217 16.0774 44.7822C17.1447 44.3427 17.8385 43.3231 17.8385 42.1804V39.3765H32.0697C39.9325 39.3765 46.301 33.083 46.301 25.3127Z" fill="#F5F5F5"/>
</svg>
