<svg width="72" height="172" viewBox="0 0 72 172" fill="none" xmlns="http://www.w3.org/2000/svg">
<g clip-path="url(#clip0_129_2849)">
<path d="M29.8901 21.9447C29.8901 21.9447 23.0656 20.5864 21.7214 14.752C20.3772 8.92219 19.9312 6.77018 19.9312 6.77018C19.9312 6.77018 24.1276 6.20339 27.9879 10.1103C31.8485 14.0196 31.5124 21.2101 29.8901 21.9447Z" fill="#C0D23F"/>
<path d="M29.8901 22.1918L29.8431 22.1874C29.7738 22.1714 22.8483 20.7269 21.4839 14.8086C20.1576 9.03993 19.7003 6.84056 19.696 6.82012C19.6804 6.75209 19.696 6.68173 19.7318 6.6274C19.7721 6.57074 19.8304 6.53429 19.8999 6.52755C19.9066 6.52523 20.1305 6.49365 20.5137 6.49365C21.7886 6.49365 25.0912 6.82918 28.1584 9.93807C31.1405 12.9538 31.5706 17.6226 31.1315 20.0263C30.9253 21.1692 30.5219 21.9287 29.9887 22.1714C29.9573 22.1828 29.9261 22.1918 29.8901 22.1918ZM20.2246 6.99241C20.3859 7.73614 20.8899 10.0648 21.9542 14.6977C23.1706 19.9674 29.0901 21.5094 29.8564 21.6861C30.1991 21.4753 30.4926 20.8314 30.6561 19.9379C31.0751 17.6363 30.6651 13.167 27.8154 10.285C24.6046 7.0356 21.17 6.94713 20.2246 6.99241Z" fill="#84A42E"/>
<g style="mix-blend-mode:multiply" opacity="0.4">
<path d="M29.8208 12.7836C29.9305 13.7314 29.9642 14.7587 29.5205 15.609C29.5049 15.6364 29.451 15.625 29.4331 15.6069C28.9628 15.0875 28.8864 14.4118 28.7923 13.7407C28.743 13.3825 28.6959 13.0037 28.5594 12.668C28.3869 12.253 28.026 13.1124 27.9498 13.2917C27.9365 13.3235 27.867 13.3098 27.8558 13.2826C27.6094 12.6046 27.7213 11.8767 27.5378 11.1873C27.5107 11.0944 27.3226 10.7565 27.3315 10.6931C27.3136 10.8336 27.3001 10.972 27.2957 11.1148C27.2868 11.4095 27.2778 11.6907 27.1657 11.9674C27.1546 11.9946 27.0918 11.9856 27.0762 11.9651C26.2291 10.6 25.5884 8.88804 24.5399 7.66807C21.9857 6.49803 19.9312 6.77017 19.9312 6.77017C19.9312 6.77017 20.3772 8.92217 21.7214 14.752C23.0656 20.5864 29.8901 21.9447 29.8901 21.9447C31.1875 21.3573 31.6558 16.6453 29.8208 12.7836Z" fill="#98C22E"/>
</g>
<path d="M35.3143 0.244263C35.3143 0.244263 28.4965 3.92204 29.0544 9.18293C29.3545 11.8404 31.4765 20.7837 31.4765 20.7837C31.4765 20.7837 38.1083 11.1873 36.5936 5.79517C35.321 2.23744 34.8215 0.885824 35.3143 0.244263Z" fill="#C0D23F"/>
<path d="M31.4766 21.0285L31.4316 21.0264C31.3375 21.0081 31.2614 20.9356 31.2435 20.8404C31.1538 20.4752 29.1151 11.8541 28.8125 9.21244C28.2458 3.84496 34.9134 0.180655 35.1979 0.0264761C35.2988 -0.0234464 35.4243 -0.00301299 35.4982 0.0877762C35.5721 0.173921 35.5744 0.305345 35.5049 0.393812C35.1061 0.915328 35.6168 2.34845 36.7417 5.48892L36.8202 5.70904C38.3548 11.1715 31.9515 20.5297 31.6737 20.9242C31.6289 20.99 31.5527 21.0285 31.4766 21.0285ZM34.882 0.786226C33.3026 1.78607 28.8529 4.99016 29.2943 9.15787C29.5496 11.3914 31.1226 18.201 31.5862 20.1805C32.8612 18.2101 37.6378 10.4187 36.3585 5.8609L36.2847 5.65448C35.3257 2.97213 34.8395 1.60913 34.882 0.786226Z" fill="#84A42E"/>
<g style="mix-blend-mode:multiply" opacity="0.4">
<path d="M35.1284 0.917664C34.6937 1.32587 34.2747 1.75427 33.923 2.23956C33.067 3.43004 32.9372 4.96301 32.0699 6.13746C32.0543 6.16022 31.9917 6.16695 31.9828 6.13746C31.8795 5.86091 31.8527 5.58204 31.8394 5.28715C31.8304 5.09211 31.8304 4.88824 31.79 4.69528C31.7721 4.60914 31.6242 4.20117 31.6086 4.22137C31.1896 4.73174 31.2254 5.61386 31.2029 6.23498C31.1761 7.06718 31.1986 7.90402 31.0999 8.72716C31.0462 9.176 30.979 9.80873 30.5488 10.0628C30.2575 10.235 29.8631 10.0943 29.6571 9.86098C29.3186 9.48668 29.2852 8.85417 29.2852 8.38026C29.2806 7.65673 29.3769 6.93576 29.5047 6.22593C29.1372 7.13986 28.9401 8.12855 29.0543 9.18296C29.3544 11.8405 31.4764 20.7838 31.4764 20.7838C31.4764 20.7838 38.1082 11.1873 36.5935 5.7952C35.6527 3.16023 35.1351 1.73848 35.1284 0.917664Z" fill="#98C22E"/>
</g>
<g style="mix-blend-mode:multiply" opacity="0.5">
<path d="M27.1076 14.507C25.9962 12.6975 23.9663 11.6544 22.026 11.0129C21.9902 11.0015 21.932 11.0921 21.9677 11.1102C23.8633 12.049 25.5482 13.0671 27.0066 14.6296C27.047 14.6702 27.1344 14.5502 27.1076 14.507Z" fill="#84A42E"/>
<path d="M28.3263 17.7292C27.4302 16.9537 26.3725 16.421 25.2658 16.0263C25.2233 16.0149 25.1538 16.1261 25.1985 16.1443C26.2516 16.65 27.2017 17.3008 28.174 17.9494C28.2591 18.006 28.4048 17.7973 28.3263 17.7292Z" fill="#84A42E"/>
<path d="M28.6802 12.9401C28.6958 12.8812 28.6309 12.922 28.6176 12.9538C28.306 13.7814 28.1269 14.6907 28.3487 15.5637C28.3756 15.677 28.5189 15.5161 28.51 15.4458C28.3935 14.6045 28.4494 13.7589 28.6802 12.9401Z" fill="#84A42E"/>
<path d="M26.9754 11.8744C26.8591 11.4232 26.9284 10.9539 26.8747 10.4935C26.8681 10.4368 26.7873 10.5186 26.7896 10.5571C26.8231 11.1193 26.7403 11.6136 26.8681 12.1669C26.9688 12.5865 27.1347 13.0014 27.3384 13.3778C27.3811 13.4573 27.5066 13.3007 27.4797 13.235C27.287 12.7836 27.0943 12.3483 26.9754 11.8744Z" fill="#84A42E"/>
</g>
<g style="mix-blend-mode:multiply" opacity="0.5">
<path d="M33.8716 8.26901C33 9.04687 31.9761 9.77016 31.5975 10.9425C31.5617 11.0514 31.6916 11.0015 31.7207 10.9402C32.2025 9.85863 33.0314 9.07404 33.8872 8.29617C33.9074 8.27806 33.9007 8.24416 33.8716 8.26901Z" fill="#84A42E"/>
<path d="M31.4136 5.50027C31.3957 5.4392 31.315 5.52302 31.3239 5.56598C31.4809 6.30762 31.5527 7.0741 31.7408 7.80877C31.7633 7.90839 31.8842 7.76558 31.8752 7.70661C31.817 6.96288 31.6086 6.21915 31.4136 5.50027Z" fill="#84A42E"/>
<path d="M33.9678 6.26445C33.625 6.44603 33.3001 6.58883 33.0558 6.91297C32.7578 7.30307 32.5563 7.74517 32.3547 8.19192C32.2828 8.3461 32.4487 8.33263 32.5024 8.21676C32.6547 7.87892 32.8004 7.54107 32.9954 7.22365C33.2418 6.81104 33.625 6.60229 33.9678 6.29858C33.9767 6.29161 33.9946 6.24866 33.9678 6.26445Z" fill="#84A42E"/>
</g>
<path d="M30.7283 24.4367C30.7283 24.4367 27.484 10.904 20.9956 7.22366C27.2062 10.5638 30.1144 18.8881 30.9523 23.0783L30.7283 24.4367Z" fill="#C0D23F"/>
<path d="M30.7283 24.6816C30.6163 24.6816 30.522 24.6046 30.4929 24.4957C30.4617 24.3596 27.1972 11.0219 20.8747 7.43681C20.7604 7.3711 20.7177 7.22365 20.7804 7.1057C20.8476 6.98797 20.991 6.94478 21.1075 7.00608C28.5953 11.0354 30.9479 21.8131 31.1899 23.0286C31.1943 23.0581 31.1988 23.0874 31.1943 23.1192L30.9703 24.4752C30.9522 24.5909 30.8538 24.677 30.7372 24.6816H30.7283ZM25.7318 11.7271C28.4138 15.8291 30.0471 21.0264 30.6744 23.2757L30.7058 23.083C30.4998 22.0715 29.207 16.2917 25.7318 11.7271Z" fill="#5F8533"/>
<path d="M31.5664 21.6069C31.5664 21.6069 29.9913 10.6363 34.7166 2.79056C30.7778 6.71353 29.5903 15.3959 31.2819 22.4254L31.5664 21.6069Z" fill="#C0D23F"/>
<path d="M31.2816 22.6704H31.2704C31.1628 22.6634 31.0733 22.5886 31.0465 22.482C29.2315 14.9537 30.7372 6.4119 34.5459 2.61593C34.6333 2.5277 34.7701 2.52073 34.8641 2.59782C34.9605 2.67491 34.9853 2.8133 34.9224 2.91756C30.2981 10.6 31.7903 21.4639 31.8082 21.5728C31.8125 21.6113 31.8082 21.6522 31.7946 21.6907L31.5124 22.5048C31.4767 22.6044 31.387 22.6704 31.2816 22.6704ZM33.2779 5.08535C30.9478 9.07172 30.1189 15.4051 31.2839 21.2983C31.0956 19.5819 30.4348 11.7566 33.2779 5.08535Z" fill="#5F8533"/>
<path d="M39.3835 71.3069C36.294 69.3479 36.8405 64.5065 38.4761 61.9352C40.5306 58.7016 44.2074 56.4477 47.7697 55.3366C50.2209 54.5701 53.0483 54.2118 55.6115 54.3888C65.8549 55.0986 68.4965 54.1166 68.4965 54.1166C68.4965 54.1166 67.1454 56.5703 66.4464 59.6269C65.7475 62.6836 65.2591 69.9964 60.1934 75.8875C55.1253 81.7809 48.9774 82.6516 44.8817 80.4701C40.7862 78.2888 40.4613 75.0144 40.3537 73.4341C40.2484 71.8581 39.3903 71.3116 39.3835 71.3069Z" fill="#86B133"/>
<path d="M49.3961 81.808C47.7449 81.808 46.1474 81.4202 44.7672 80.6856C40.4476 78.384 40.2035 74.7991 40.1115 73.4475C40.0151 72.0234 39.2624 71.52 39.2557 71.5133C38.149 70.8128 37.3983 69.6903 37.0823 68.2639C36.5627 65.9102 37.3065 63.323 38.2742 61.7991C40.1654 58.8219 43.6022 56.3796 47.7023 55.1009C50.1916 54.323 53.1018 53.9694 55.6269 54.1461C58.0893 54.3163 60.3164 54.4025 62.252 54.4025C66.9392 54.4025 68.4 53.8921 68.4135 53.8877C68.5076 53.8535 68.6152 53.8809 68.6801 53.9601C68.745 54.0372 68.7586 54.1484 68.707 54.2369C68.6957 54.2617 67.3648 56.6994 66.6839 59.6812C66.5673 60.187 66.4597 60.8083 66.3299 61.5249C65.7001 65.103 64.6427 71.087 60.3746 76.0507C57.184 79.7626 53.2833 81.808 49.3961 81.808ZM39.5111 71.0984C39.5111 71.0984 40.479 71.6902 40.5956 73.4136C40.6896 74.8126 40.9135 78.0801 44.9957 80.2525C46.2998 80.951 47.8255 81.3183 49.3961 81.3183C53.1422 81.3183 56.9108 79.3319 60.0094 75.7286C64.19 70.8671 65.2318 64.9647 65.8547 61.4385C65.9825 60.7129 66.0922 60.0871 66.2087 59.5723C66.7263 57.3163 67.6046 55.3617 68.0347 54.4863C67.2528 54.6495 65.5278 54.8922 62.252 54.8922C60.3051 54.8922 58.0645 54.806 55.5955 54.6337C53.1197 54.4658 50.279 54.806 47.8457 55.5702C43.8532 56.815 40.5104 59.1825 38.6775 62.0668C37.7679 63.502 37.069 65.9396 37.5529 68.1574C37.844 69.4702 38.503 70.4589 39.5111 71.0984Z" fill="#528C45"/>
<g style="mix-blend-mode:multiply" opacity="0.5">
<path d="M67.1853 55.3819C65.5408 55.8741 63.8694 56.3481 62.1981 56.7426C60.4234 57.1621 58.6759 58.2481 56.7985 57.797C56.7694 57.7902 56.7446 57.738 56.7671 57.7085C56.9373 57.4909 56.9933 57.2028 57.1413 56.9671C57.2039 56.8626 56.8253 56.8719 56.7694 56.8719C56.3011 56.874 55.8507 56.9919 55.4408 57.2299C54.6566 57.6813 54.047 58.3617 53.3839 58.9693C52.7925 59.5113 52.1001 60.0486 51.3407 60.3207C51.0291 60.4319 50.6102 60.5453 50.3771 60.2299C50.1217 59.8786 50.292 59.2935 50.3996 58.9285C50.5946 58.2504 50.9172 57.5905 51.2868 56.9919C51.3765 56.8468 51.1009 56.9806 51.0089 57.0033C50.9126 57.0305 50.8141 57.0576 50.7221 57.0941C50.5384 57.1642 50.3548 57.246 50.189 57.3525C49.8171 57.5861 49.4876 57.8808 49.2031 58.221C48.5736 58.9603 48.1053 59.815 47.6192 60.6562C47.1913 61.4 46.7565 62.1802 46.1561 62.7992C45.6452 63.3251 44.7669 63.976 43.9827 63.799C43.2635 63.6358 43.0329 62.8672 43.0508 62.1936C43.0754 61.1801 43.734 60.2822 44.3189 59.509C44.6818 59.0283 45.0805 58.5544 45.3584 58.0124C45.2464 58.2323 44.9372 58.4093 44.749 58.5816C44.5139 58.797 44.2874 59.0169 44.0724 59.2505C43.1492 60.2641 42.3742 61.4318 41.8768 62.7244C41.6862 63.2255 40.6781 67.4975 39.5309 66.0258C38.3457 64.5089 38.6862 62.3933 39.363 60.738L39.3763 60.7018C39.0514 61.0986 38.7491 61.5045 38.4756 61.9352C36.84 64.5065 36.2935 69.3479 39.383 71.3069C39.3899 71.3115 40.2479 71.8581 40.3532 73.4341C40.4608 75.0144 40.7857 78.2888 44.8812 80.4701C48.9769 82.6516 55.1248 81.7809 60.1929 75.8875C65.2586 69.9964 65.7471 62.6836 66.4459 59.6269C66.8761 57.7584 67.5439 56.1168 68.0032 55.1234C67.7321 55.2096 67.4586 55.3004 67.1853 55.3819Z" fill="#86B133"/>
</g>
<g style="mix-blend-mode:multiply" opacity="0.5">
<path d="M66.4329 55.602C66.1303 55.9036 65.8458 56.2301 65.6352 56.5861C64.6674 58.2186 64.3334 60.0894 63.7979 61.8876C62.7001 65.5904 61.5486 69.4498 59.364 72.6699C58.3805 74.1188 57.1707 75.4454 55.6739 76.3591C54.0654 77.3387 52.2573 77.8012 50.3863 77.8398C48.7464 77.8716 46.7816 77.7673 45.6007 76.4498C44.7649 75.5134 44.2767 74.0575 44.8009 72.8445C45.3901 71.4748 46.9137 71.1346 48.2536 71.3728C49.1587 71.5338 50.0415 71.8059 50.9376 72.0009C51.8854 72.205 53.0458 72.4521 53.978 72.053C54.2042 71.951 54.4284 71.8287 54.5986 71.645C54.7734 71.4567 54.7934 71.4704 54.5403 71.4339C54.1638 71.3819 53.783 71.3478 53.4044 71.3162C52.4881 71.2345 51.5582 71.1641 50.6575 70.96C49.526 70.7016 47.3976 69.8422 48.1549 68.2526C48.5312 67.4589 49.3266 66.9147 50.0727 66.5111C50.8076 66.1099 51.594 65.7697 52.4209 65.6269C54.5516 65.2596 56.7336 65.7335 58.8577 65.3253C59.4111 65.2164 59.9624 65.0622 60.4598 64.7856C60.6704 64.6677 60.8787 64.5407 61.0645 64.3842C61.1946 64.2822 61.3201 64.1733 61.4364 64.0531C61.5755 63.9103 61.5218 63.9602 61.3245 63.9987C59.9667 64.2572 58.5957 64.5202 57.2065 64.4907C56.6598 64.4817 52.8511 64.06 54.296 62.7335C54.9526 62.1279 56.0236 61.8353 56.8883 61.6949C57.901 61.5339 58.9272 61.5045 59.9488 61.4183C60.9661 61.3298 62.055 61.2277 62.9892 60.7788C63.211 60.6723 63.4306 60.5566 63.6233 60.4024C63.7307 60.3184 63.8339 60.2323 63.928 60.1324C63.975 60.0827 64.1184 60.0418 64.0356 60.0395C63.7399 60.0258 63.4439 60.0576 63.1528 60.0804C62.5322 60.1233 60.0856 60.4953 60.0968 59.3434C60.1012 58.7585 60.8899 58.4703 61.3245 58.2572C62.1087 57.8741 62.9511 57.5771 63.6995 57.1326C63.7757 57.0871 63.8518 57.0395 63.9234 56.9875C63.8181 57.069 63.5157 57.0351 63.3879 57.0395C63.0452 57.06 62.7024 57.0827 62.3596 57.1143C61.6964 57.1756 61.0333 57.246 60.3746 57.3412C60.3386 57.3458 60.3005 57.3549 60.2604 57.3593C59.3438 57.6767 58.4208 57.9535 57.4664 57.8945C57.1618 57.9648 56.8502 58.0259 56.5432 58.1076C55.3738 58.4137 54.2221 58.7924 53.0885 59.2254C52.5663 59.6745 51.9818 60.0894 51.341 60.3207C51.0854 60.4115 50.7628 60.4907 50.5254 60.3456C50.0369 60.5905 49.5485 60.8355 49.0736 61.1053C46.8979 62.3457 44.7069 63.8717 43.0332 65.7697C42.4193 66.4658 41.8613 67.2142 41.2182 67.8852C40.6761 68.4499 40.0353 69.0757 39.267 69.2912C38.5791 69.4772 37.9808 69.255 37.4946 68.8398C37.8351 69.8331 38.4357 70.7062 39.3833 71.3069C39.3902 71.3115 40.2482 71.8581 40.3535 73.4341C40.4611 75.0144 40.786 78.2888 44.8815 80.4701C48.9772 82.6516 55.1251 81.7809 60.1932 75.8875C65.2589 69.9964 65.7474 62.6836 66.4462 59.6269C66.8764 57.7584 67.5442 56.1168 68.0035 55.1234C67.7324 55.2096 67.4589 55.3004 67.1856 55.3819C66.9392 55.4592 66.6839 55.5249 66.4329 55.602Z" fill="#86B133"/>
</g>
<path d="M25.387 77.0779C25.387 77.0779 28.4765 80.8193 25.2705 85.5359C22.0576 90.257 15.1546 88.7876 11.7019 82.656C8.24931 76.5269 4.49658 69.7242 1.28369 68.1915C1.28369 68.1915 6.00896 64.7582 14.3055 64.2662C22.6043 63.7788 25.4496 67.9442 27.2667 70.8875C29.0838 73.8308 28.2347 76.7106 26.2988 76.2209C24.8446 75.7309 24.782 76.0372 25.387 77.0779Z" fill="#86B133"/>
<path d="M20.0812 88.5721C16.7965 88.5745 13.5031 86.3521 11.4911 82.7786L11.1728 82.2116C7.91522 76.4226 4.22512 69.867 1.1804 68.4137C1.10423 68.3772 1.05032 68.3001 1.04137 68.214C1.03701 68.1255 1.0728 68.0417 1.14461 67.9918C1.18935 67.9556 6.01993 64.5112 14.2917 64.0235C22.3643 63.5452 25.3262 67.2843 27.4704 70.7582C28.6958 72.7446 28.7026 74.6266 28.1626 75.613C27.7615 76.3476 27.0423 76.663 26.2381 76.4565C25.7967 76.3114 25.4941 76.239 25.3216 76.239C25.2612 76.239 25.2388 76.2457 25.2388 76.2457C25.2702 76.2548 25.2656 76.3795 25.5973 76.9555C25.6063 76.9599 28.7428 80.8602 25.4673 85.6764C24.1969 87.5449 22.2858 88.5721 20.0812 88.5721ZM1.76292 68.1687C4.84572 69.9806 8.27381 76.0711 11.5941 81.9689L11.91 82.5336C13.8392 85.9553 16.9714 88.0824 20.0812 88.0824C22.1222 88.0824 23.89 87.1276 25.0662 85.3999C28.138 80.885 25.2344 77.273 25.203 77.2367C24.849 76.6358 24.6877 76.2524 24.8444 75.9782C25.0146 75.672 25.4 75.6606 26.3724 75.9873C26.48 76.0168 26.6011 76.0302 26.7174 76.0302C27.2641 76.0302 27.5778 75.6743 27.739 75.375C28.2096 74.5156 28.1828 72.8354 27.0581 71.0166C25.4629 68.4318 22.7474 64.0101 14.3185 64.5135C7.42241 64.9214 2.97727 67.4069 1.76292 68.1687Z" fill="#528C45"/>
<g style="mix-blend-mode:multiply" opacity="0.5">
<path d="M26.2988 76.2209C28.2347 76.7106 29.0838 73.8309 27.2667 70.8875C27.0584 70.5541 26.8409 70.2028 26.6014 69.8489C26.8299 70.425 27.0224 71.0167 27.1458 71.6085C27.2734 72.2162 27.4415 73.1348 26.9194 73.6177C26.6865 73.833 26.3862 73.8286 26.1129 73.6948C25.6447 73.4612 25.2659 73.0484 24.9321 72.6562C24.4168 72.0576 23.9552 71.4114 23.5048 70.7629C23.0345 70.0893 22.5772 69.4045 22.1023 68.7379C21.735 68.2231 21.3608 67.6677 20.8836 67.2504C20.7962 67.1733 20.7042 67.0916 20.6012 67.0396C20.5117 66.9964 20.7558 67.1824 20.776 67.2095C20.8657 67.3275 20.9598 67.4455 21.0492 67.5655C21.3899 68.0123 21.7281 68.4657 22.0149 68.9533C22.6132 69.9783 22.9829 71.0779 22.7789 72.2798C22.7789 72.2979 22.752 72.2979 22.7387 72.2956C21.8963 72.205 21.2823 71.1527 20.8611 70.5202C20.1935 69.5157 19.6445 68.3547 18.7708 67.5179C17.3816 66.1869 15.4974 65.289 13.5527 65.5589C13.6087 65.5679 13.6691 65.577 13.7273 65.5927C13.8955 65.638 14.0611 65.697 14.2158 65.7741C14.5473 65.9443 14.8522 66.1619 15.1209 66.4182C15.5556 66.8332 15.9477 67.3319 16.1852 67.8899C16.313 68.1892 16.5011 68.6789 16.2772 68.9805C16.0395 69.2935 15.5602 69.196 15.242 69.0915C14.7983 68.9443 14.4039 68.7151 13.9896 68.4999C13.324 68.146 12.6385 67.8218 11.935 67.5474C9.64078 66.6653 7.18959 66.2413 4.74757 66.3887C2.4891 67.3184 1.28369 68.1915 1.28369 68.1915C4.49658 69.7242 8.24931 76.5269 11.7019 82.656C15.1546 88.7876 22.0576 90.257 25.2705 85.536C28.4765 80.8193 25.387 77.0779 25.387 77.0779C24.782 76.0372 24.8446 75.731 26.2988 76.2209Z" fill="#86B133"/>
</g>
<g style="mix-blend-mode:multiply" opacity="0.5">
<path d="M26.2986 76.2209C26.7132 76.3252 27.0738 76.2685 27.3742 76.096C27.1947 76.1097 27.0133 76.1053 26.8318 76.0734C25.8237 75.9012 24.9386 75.3137 24.0984 74.7583C23.6616 74.4704 23.2291 74.1687 22.7721 73.917C22.2456 73.6312 21.6878 73.4204 21.1523 73.1596C18.8108 72.0214 16.5861 70.6108 14.1418 69.7105C12.7774 69.2095 11.4084 68.9192 9.96551 68.8036C9.18569 68.7425 8.3882 68.6608 7.60402 68.7198C7.46063 68.7311 7.31724 68.7425 7.17614 68.7627C7.52556 68.772 7.87062 68.7968 8.21797 68.8421C9.59131 69.0191 10.8954 69.5429 12.2529 69.7765C13.3732 69.9715 14.5696 70.0145 15.6317 70.4522C16.1178 70.6563 17.1821 71.146 17.2404 71.7787C17.2808 72.1869 16.492 72.2389 16.2523 72.255C14.6885 72.3727 13.1089 71.9624 11.5674 72.4203C11.0968 72.561 10.5838 72.7718 10.2768 73.1824C10.2209 73.2571 10.1649 73.3342 10.1201 73.425C9.99465 73.6878 10.1582 73.7015 10.3934 73.7083C10.754 73.7173 11.1058 73.6834 11.4598 73.6177C12.1187 73.4998 12.784 73.2889 13.4493 73.2594C14.1351 73.232 14.8206 73.232 15.5062 73.2662C16.743 73.3275 17.9842 73.4475 19.2052 73.6426C20.0052 73.7696 20.8745 73.9419 21.5869 74.3501C22.0216 74.6018 22.6555 75.1936 22.2545 75.7537C21.811 76.3681 20.9147 76.4974 20.2695 76.7877C19.5526 77.1074 18.82 77.6245 18.3134 78.2252C18.1097 78.4658 17.6212 79.1164 18.0067 79.418C18.3045 79.6583 18.8849 79.3295 19.1582 79.1821C19.893 78.7922 20.5607 78.2979 21.2577 77.8467C21.8512 77.468 22.5817 77.1868 23.2986 77.3343C25.1806 77.7288 25.5615 80.1889 24.9588 81.749C24.2173 83.6809 22.2187 84.7514 20.256 84.9531C18.524 85.1322 16.6242 84.9531 15.2283 83.7875C14.507 83.1822 13.9557 82.3932 13.595 81.5178C13.3239 80.8693 13.1224 80.2254 13.0933 79.5155C13.0685 78.8422 13.1224 78.1323 12.9655 77.4748C12.6519 76.1891 11.572 75.3522 10.716 74.4272C10.4964 74.1936 10.2768 73.9556 10.0573 73.7243L9.95863 73.7129C9.94532 73.7106 9.90953 73.6948 9.91848 73.6744C9.92513 73.6493 9.94073 73.6335 9.94968 73.6108C9.34927 72.9806 8.73096 72.3773 8.00942 71.8716C6.6831 70.9442 5.10144 70.2458 3.47021 69.9102C6.12743 72.688 9.00651 77.8739 11.7018 82.656C15.1544 88.7876 22.0574 90.257 25.2703 85.536C28.4763 80.8193 25.3869 77.0779 25.3869 77.0779C24.7819 76.0372 24.8445 75.731 26.2986 76.2209Z" fill="#86B133"/>
</g>
<path d="M39.7574 35.2552C39.7574 35.2552 36.1233 34.8108 35.9957 31.0035C35.8679 27.1917 39.7574 23.6997 43.7724 22.6862C47.7896 21.6703 54.6277 19.7656 63.9727 22.1147C61.4635 24.5275 60.3969 28.779 59.2676 32.017C58.1384 35.2552 56.4448 40.3956 51.4281 42.8061C46.4073 45.2212 41.4536 42.491 40.4498 39.126C39.6991 35.8244 40.824 35.1306 39.7574 35.2552Z" fill="#86B133"/>
<path d="M47.5184 43.9717C44.1667 43.9717 41.03 41.9195 40.2189 39.1984C39.8291 37.4887 39.9276 36.4387 39.9815 35.8766C39.9948 35.7291 40.0129 35.5636 40.004 35.4865C39.9948 35.4909 39.9769 35.4909 39.9524 35.4865C39.9053 35.4865 39.8537 35.4909 39.7888 35.4979C39.6901 35.4932 35.8837 34.9831 35.7536 31.0125C35.6215 26.9446 39.6947 23.4661 43.714 22.4481L44.1309 22.3416C46.7769 21.668 50.4043 20.7452 55.0869 20.7452C58.0353 20.7452 61.0465 21.126 64.0309 21.8767C64.116 21.8971 64.1855 21.9649 64.2057 22.0513C64.228 22.1375 64.2011 22.2303 64.1385 22.2916C62.0817 24.2711 61.0018 27.5546 60.0497 30.4501C59.8613 31.0172 59.6798 31.5705 59.4961 32.0987L59.4199 32.3165C58.2684 35.627 56.5298 40.6271 51.529 43.0283C50.2295 43.6543 48.8807 43.9717 47.5184 43.9717ZM39.9524 34.9968C40.071 34.9968 40.2481 35.0126 40.3669 35.1486C40.5213 35.3186 40.5011 35.5478 40.4631 35.9263C40.4117 36.4977 40.3197 37.4546 40.6849 39.0693C41.4356 41.577 44.3727 43.4817 47.5184 43.4817C48.8045 43.4817 50.0861 43.1804 51.3227 42.5862C56.14 40.2732 57.8382 35.3866 58.9629 32.1531L59.039 31.9355C59.2228 31.414 59.402 30.8607 59.5903 30.2939C60.511 27.4889 61.5508 24.3255 63.4954 22.2485C60.6881 21.5774 57.8584 21.2349 55.0869 21.2349C50.467 21.2349 46.8732 22.1509 44.2474 22.8176L43.8306 22.9221C40.0845 23.872 36.1122 27.2279 36.2398 30.9921C36.354 34.5521 39.65 34.9945 39.7888 35.0126C39.8179 35.0012 39.8918 34.9968 39.9524 34.9968Z" fill="#528C45"/>
<g style="mix-blend-mode:multiply" opacity="0.5">
<path d="M62.6463 22.9492C61.6111 23.3052 60.5759 23.6498 59.5029 23.8901C58.6178 24.0898 57.614 24.2916 56.7335 23.9651C56.7225 23.9604 56.7066 23.9514 56.7135 23.9356C56.8659 23.6748 56.915 23.3595 57.0765 23.1101C57.2242 22.8721 57.3093 22.8313 56.9374 22.8266C56.2563 22.8199 55.6065 23.0059 55.0061 23.33C53.9891 23.881 53.1331 24.6703 52.1383 25.2598C51.5111 25.6295 50.5163 26.219 49.7454 25.9991C49.2705 25.8631 49.3983 25.2394 49.5394 24.9015C49.8328 24.1736 50.346 23.5455 50.915 23.0217C50.9285 23.0082 51.1323 22.8765 51.0561 22.9016C50.9217 22.9402 50.7851 22.9831 50.6574 23.0354C50.3348 23.1624 50.0232 23.3119 49.7344 23.5046C49.2794 23.8063 48.8694 24.1622 48.4998 24.5637C47.0928 26.092 46.0039 28.101 44.057 29.0193C43.7298 29.1735 43.1494 29.4094 42.8493 29.0602C42.5109 28.6701 42.6655 28.0035 42.8045 27.5614C42.903 27.2574 43.0285 26.9628 43.1719 26.6748C42.2578 28.0534 41.375 29.5206 40.1606 30.6361C39.242 31.4797 38.0435 31.9764 37.0352 30.9377C36.3921 30.2755 36.3294 29.3662 36.4953 28.4753C36.1546 29.2847 35.9665 30.135 35.9956 31.0034C36.1232 34.8108 39.7573 35.2552 39.7573 35.2552C40.8239 35.1305 39.699 35.8243 40.4497 39.1259C41.4535 42.4909 46.4072 45.2211 51.428 42.806C56.4446 40.3956 58.1383 35.2552 59.2675 32.017C60.3162 29.0149 61.3199 25.16 63.4573 22.6906C63.1884 22.779 62.9174 22.8584 62.6463 22.9492Z" fill="#86B133"/>
</g>
<g style="mix-blend-mode:multiply" opacity="0.5">
<path d="M62.3931 24.1692C60.4395 26.1443 58.9653 28.5433 57.7823 31.0534C57.22 32.2485 56.7226 33.4682 56.2564 34.7042C55.8533 35.7654 55.4275 36.8335 54.8585 37.8152C53.9039 39.441 52.4073 41.0146 50.5029 41.4024C49.1229 41.6815 47.5768 41.6112 46.2369 41.1735C45.2199 40.8424 43.9853 40.1349 44.0548 38.8787C44.1489 37.2099 45.5268 36.4072 47.0211 36.2664C47.9241 36.1803 48.8292 36.2212 49.7366 36.1826C50.5611 36.1441 51.491 36.0737 52.1967 35.5884C52.3759 35.4684 52.5395 35.3256 52.6739 35.16C52.6404 35.1781 52.6067 35.1986 52.5686 35.2167C52.2371 35.3662 51.8808 35.4547 51.5201 35.5C50.5657 35.6226 49.5822 35.568 48.6344 35.4185C47.8569 35.2982 46.9495 35.16 46.2842 34.7042C45.7666 34.3504 45.2153 33.745 45.65 33.0942C46.6806 31.5477 49.004 31.7699 50.579 31.9446C51.6321 32.0625 52.6987 32.212 53.7605 32.1826C54.7151 32.1577 55.7792 32.017 56.5276 31.3594C56.6352 31.2689 56.7382 31.1713 56.8256 31.0624C56.886 30.9944 57.0048 30.9559 56.8972 30.9377C56.7584 30.9129 56.6194 30.8925 56.4806 30.8788C56.1445 30.8449 55.8106 30.8244 55.4745 30.804C54.7665 30.7587 54.034 30.7292 53.3438 30.5319C52.9226 30.4095 52.4007 30.2031 52.2236 29.7496C51.9973 29.1624 52.3312 28.4549 52.6941 27.9944C53.8323 26.5432 55.9205 26.0897 57.5919 25.6248C58.1116 25.482 58.6314 25.3413 59.1421 25.176C59.3372 25.1147 59.5322 25.049 59.7269 24.974C59.8144 24.9401 59.9041 24.906 59.9935 24.8674C60.0475 24.8472 60.22 24.8289 60.1236 24.8289C58.6808 24.8177 57.2379 24.981 55.8262 25.2893C52.8935 25.9288 50.0929 27.0717 47.3797 28.3504C45.8606 29.0648 44.4267 29.8448 42.9882 30.6974C41.6619 31.4864 40.3065 32.2961 38.8569 32.8311C38.187 33.0761 37.3647 33.3345 36.6187 33.237C37.6896 35.0012 39.7574 35.2552 39.7574 35.2552C40.824 35.1305 39.6992 35.8243 40.4498 39.126C41.4536 42.491 46.4074 45.2211 51.4281 42.8061C56.4448 40.3956 58.1384 35.2552 59.2676 32.017C60.1303 29.5478 60.975 26.507 62.4358 24.1283C62.4223 24.1418 62.4044 24.1532 62.3931 24.1692Z" fill="#86B133"/>
</g>
<path d="M22.2705 34.5796C22.2705 34.5796 24.67 38.8673 19.7676 41.2439C14.8678 43.6202 9.22848 41.33 5.19333 33.4186C1.15382 25.5092 0.244141 22.1466 0.244141 22.1466C0.244141 22.1466 12.2934 16.7405 19.7835 22.3437C27.2733 27.9492 27.0359 34.8199 22.2705 34.5796Z" fill="#86B133"/>
<path d="M16.0191 42.3821C11.8137 42.3821 7.89074 39.237 4.97794 33.5295C0.974449 25.6885 0.0466481 22.3506 0.00856325 22.2099C-0.0226388 22.0966 0.0333413 21.9696 0.145301 21.922C0.196922 21.8972 5.48658 19.5547 11.1775 19.5547C14.6861 19.5547 17.6278 20.4255 19.929 22.1465C25.0057 25.9469 26.4846 30.2597 25.7004 32.6565C25.2657 33.9944 24.1612 34.7813 22.6555 34.8289C22.9221 35.4661 23.3568 36.8425 22.9042 38.3119C22.4919 39.6271 21.4771 40.6905 19.8751 41.4637C18.6203 42.076 17.3209 42.3821 16.0191 42.3821ZM0.539686 22.2847C0.799626 23.1259 1.97796 26.5841 5.40605 33.305C8.2335 38.8401 12.0021 41.89 16.0191 41.89C17.2493 41.89 18.4769 41.5998 19.6644 41.0216C21.1431 40.3074 22.0753 39.3459 22.4405 38.1668C22.9893 36.3958 22.0707 34.72 22.0597 34.6996C22.017 34.6225 22.017 34.5273 22.0617 34.4525C22.1111 34.3754 22.1693 34.3323 22.2813 34.3346C23.7714 34.4093 24.8355 33.7518 25.2411 32.5046C25.9693 30.2688 24.5265 26.1963 19.6399 22.541C17.4285 20.8857 14.5808 20.0468 11.1775 20.0468C6.20354 20.0468 1.53884 21.8698 0.539686 22.2847Z" fill="#528C45"/>
<g style="mix-blend-mode:multiply" opacity="0.5">
<path d="M24.7373 27.915C24.9479 28.5772 25.1112 29.2643 25.0688 29.9604C25.0509 30.3073 24.9254 31.2326 24.4661 31.3188C24.1859 31.3731 23.9081 31.2236 23.6706 31.0942C23.3368 30.9173 23.003 30.7496 22.7073 30.5114C21.1883 29.3256 20.2494 27.55 19.248 25.9355C18.8043 25.2213 18.4413 24.4594 17.9866 23.7496C17.8072 23.4684 17.4578 22.8652 17.0501 22.8856C16.3398 22.9241 16.5167 23.8743 16.5997 24.3391C16.6713 24.7427 16.8461 25.6453 16.2703 25.8018C15.8559 25.9151 15.493 25.4639 15.2734 25.176C14.3323 23.94 13.7833 22.4616 12.9544 21.1532C12.8626 21.008 12.7662 20.8629 12.6563 20.7292C12.5669 20.6249 12.4861 20.4549 12.5265 20.6839C12.6162 21.2077 12.8759 21.6679 13.1448 22.1193C13.6153 22.9151 14.1664 23.7633 13.9379 24.7316C13.9313 24.7497 13.9157 24.7926 13.8886 24.7792C13.3689 24.5751 12.9229 24.2463 12.4772 23.9128C11.9261 23.4979 11.3615 23.1463 10.7429 22.847C9.51526 22.2531 8.20685 21.8131 6.85139 21.6612C4.64225 21.4072 2.41727 21.693 0.244141 22.1579C0.279931 22.2779 1.22769 25.6499 5.19333 33.4185C9.22848 41.33 14.8678 43.6201 19.7676 41.2438C24.67 38.8673 22.2705 34.5795 22.2705 34.5795C25.49 34.7427 26.6282 31.6589 24.7373 27.915Z" fill="#86B133"/>
</g>
<g style="mix-blend-mode:multiply" opacity="0.5">
<path d="M23.8994 34.3255C23.3214 34.0466 22.788 33.6588 22.3108 33.2734C21.1435 32.3367 20.1108 31.2438 19.078 30.1645C15.7038 26.6474 10.909 24.0717 5.95317 24.3505C5.23621 24.3914 4.51925 24.4799 3.81789 24.6475C3.51551 24.7202 3.2106 24.7996 2.91487 24.8992C3.03142 24.8607 3.45723 24.8811 3.68574 24.8901C4.92235 24.9447 6.15254 25.1395 7.34211 25.4934C9.83139 26.2371 12.1144 27.5456 14.0345 29.3142C14.0815 29.3595 14.0053 29.3685 13.9739 29.346C13.3937 28.9582 12.7194 28.727 12.0382 28.6225C10.8822 28.4435 9.67217 28.5092 8.54316 28.8266C7.99644 28.9764 7.45201 29.1758 6.95897 29.4684C6.86261 29.5274 6.76419 29.5863 6.67219 29.6521C6.60061 29.7473 6.5109 29.7904 6.40559 29.7814L6.46387 29.7767C6.57583 29.763 6.68802 29.7496 6.79998 29.7405C8.36834 29.5773 9.95459 29.5274 11.5273 29.584C13.2391 29.6453 15.0068 29.7972 16.6403 30.3459C17.8053 30.7336 19.0913 31.3777 19.4969 32.6407C19.5013 32.652 19.5013 32.6634 19.488 32.6678C17.9981 33.2393 16.4386 32.8696 14.8971 32.9785C14.0255 33.0398 13.1427 33.2755 12.5132 33.931C12.3922 34.058 12.1816 34.2166 12.4549 34.2166C12.5558 34.2189 12.6588 34.2166 12.7641 34.2143C13.0466 34.1985 13.3334 34.1713 13.6156 34.1351C14.868 33.9649 16.1069 33.6883 17.3662 33.6043C18.417 33.5342 19.6155 33.5432 20.5477 34.1214C21.623 34.7903 22.3803 36.3958 21.8561 37.6406C21.3743 38.8016 20.0367 39.2732 18.9031 39.4842C17.514 39.7403 16.0532 39.7359 14.6551 39.5091C13.0532 39.2506 11.5677 38.4684 10.4004 37.3187C8.88822 35.8334 8.03452 33.8855 7.11361 31.9989C6.08073 29.8789 4.87532 27.8063 3.36753 25.9898C2.55192 25.0058 1.64018 24.0761 0.620605 23.2938C1.18522 24.863 2.4847 28.1147 5.19353 33.4185C9.22869 41.33 14.868 43.6201 19.7679 41.2438C24.6702 38.8673 22.2707 34.5795 22.2707 34.5795C22.8956 34.6134 23.4378 34.5182 23.8994 34.3255Z" fill="#86B133"/>
</g>
<path d="M32.689 18.7745C32.689 18.7745 30.2825 14.4707 35.8771 9.65682C39.5695 6.88345 44.2699 5.74963 44.2699 5.74963C44.2699 5.74963 44.5501 10.2849 43.096 14.2418C41.1355 19.5658 34.5329 23.1352 32.689 18.7745Z" fill="#C0D23F"/>
<path d="M35.5341 20.9718C34.1069 20.9718 33.0472 20.2462 32.4669 18.8697C32.449 18.8516 30.0382 14.3598 35.7202 9.47318C39.4213 6.68844 44.1668 5.52304 44.2115 5.51166C44.2787 5.49355 44.3549 5.50934 44.4132 5.55253C44.4714 5.59548 44.5072 5.66143 44.5095 5.73387C44.5141 5.78147 44.7784 10.3664 43.32 14.328C41.9957 17.931 38.4311 20.9718 35.5341 20.9718ZM44.0413 6.06266C42.9703 6.35964 39.1123 7.53201 36.0203 9.85398C30.6701 14.4594 32.8053 18.4843 32.8971 18.6522C33.4101 19.8584 34.3175 20.4821 35.5341 20.4821C38.2473 20.4821 41.6059 17.5864 42.8673 14.1601C44.0771 10.8698 44.0681 7.13309 44.0413 6.06266Z" fill="#84A42E"/>
<g style="mix-blend-mode:multiply" opacity="0.4">
<path d="M44.1669 5.77474C43.907 6.25098 43.591 6.69076 43.1677 7.05577C42.4664 7.66367 41.671 8.16707 40.9361 8.7406C40.2281 9.2916 39.5068 9.80197 38.6935 10.1828C38.6687 10.1965 38.6329 10.1466 38.6329 10.1284C38.6306 10.0467 38.5859 9.30298 38.5432 9.31436C38.3259 9.37101 38.1309 9.47759 37.9653 9.63642C37.6067 9.981 37.3424 10.414 37.1049 10.8517C36.742 11.5116 36.4215 12.2667 35.9128 12.8315C35.7561 13.0082 35.4267 13.3755 35.1422 13.2599C34.9809 13.1941 34.8689 13.0718 34.8643 12.8902C34.8577 12.5433 34.9719 12.2101 35.0839 11.8904C35.1445 11.7181 35.2362 11.5253 35.2541 11.3394C35.2475 11.4232 34.8464 11.6387 34.7769 11.7202C34.1632 12.4346 34.1699 13.4777 33.9278 14.3484C33.7688 14.9129 33.3185 15.9629 32.5611 15.8426C32.4223 15.8222 32.3147 15.7611 32.2207 15.6794C32.0167 17.5478 32.6889 18.7745 32.6889 18.7745C34.5328 23.1352 41.1355 19.5659 43.0959 14.2418C44.55 10.2849 44.2699 5.74966 44.2699 5.74966C44.2699 5.74966 44.2275 5.76104 44.1669 5.77474Z" fill="#98C22E"/>
</g>
<g style="mix-blend-mode:multiply" opacity="0.4">
<path d="M44.1756 5.77242C44.1531 5.879 44.1196 5.98325 44.0994 6.08983C43.8844 7.25546 43.9964 8.455 43.7991 9.61598C43.6222 10.6567 43.407 11.693 43.1046 12.7065C42.6701 14.151 41.9442 15.6113 40.9874 16.7814C40.1606 17.7949 39.0359 18.6793 37.6603 18.3868C37.6424 18.3847 37.6332 18.3663 37.6332 18.3529C37.6243 18.2372 37.6289 18.1216 37.6647 18.0127C37.853 17.4754 38.4174 17.1557 38.8926 16.9242C39.5691 16.5886 40.2861 16.355 40.9762 16.0444C41.2137 15.9378 41.5587 15.8154 41.7088 15.5865C41.926 15.26 41.4064 15.185 41.218 15.2054C40.4967 15.2893 39.8022 15.6568 39.1435 15.9334C38.5789 16.1714 36.6967 17.1283 36.7327 15.7836C36.7619 14.6772 38.3055 13.9311 39.1165 13.4867C39.8201 13.0989 40.5504 12.7474 41.2719 12.3847C41.8164 12.1126 42.4191 11.8541 42.894 11.464C42.9701 11.4027 43.0599 11.3303 43.1069 11.2462C43.0867 11.2848 42.8334 11.2599 42.7685 11.2667C42.3922 11.3122 42.0203 11.4027 41.6461 11.4436C41.1643 11.5026 40.3981 11.5455 40.3758 10.8722C40.3668 10.405 41.0792 9.95151 41.3816 9.72024C42.074 9.18735 42.8334 8.72481 43.4742 8.13062C43.6066 8.01057 43.75 7.88124 43.8372 7.72474C43.7454 7.88797 43.2347 7.96529 43.0642 8.04006C42.4549 8.30755 41.8813 8.64772 41.3346 9.03085C40.2815 9.77248 39.3069 10.6251 38.2382 11.3528C38.218 11.3665 38.2001 11.3438 38.2001 11.3212C38.1822 11.0649 38.1286 10.8132 38.0994 10.5548C38.0726 10.3302 38.1196 10.346 37.9829 10.5682C37.7096 11.0082 37.4497 11.4617 37.1941 11.9129C36.7619 12.668 36.354 13.5661 35.6349 14.0897C35.4154 14.2486 34.8641 14.6045 34.6312 14.2667C34.5908 14.2056 34.5819 14.1397 34.564 14.0763C34.3375 15.1283 34.0037 16.1918 33.0628 16.7723C32.7939 16.9355 32.4982 17.0444 32.2114 16.9878C32.3188 18.0988 32.6886 18.7745 32.6886 18.7745C34.5325 23.1352 41.1352 19.5659 43.0956 14.2418C44.5498 10.2849 44.2696 5.74966 44.2696 5.74966C44.2696 5.74966 44.2315 5.76104 44.1756 5.77242Z" fill="#98C22E"/>
</g>
<g style="mix-blend-mode:multiply">
<path d="M43.1609 59.5884C41.615 62.4704 41.4268 65.4885 41.7338 68.7242C41.7561 68.951 42.0766 68.6313 42.0676 68.4794C41.8882 65.2278 42.0518 62.6223 43.3155 59.6132C43.3827 59.4523 43.2214 59.4772 43.1609 59.5884Z" fill="#528C45"/>
<path d="M49.3987 58.1392C48.2358 59.8287 47.9579 62.0079 47.8728 64.0168C47.8618 64.3094 48.2135 64.0145 48.2314 63.849C48.4285 61.8943 48.5115 59.9262 49.5309 58.1938C49.607 58.0691 49.4637 58.044 49.3987 58.1392Z" fill="#528C45"/>
<path d="M55.6203 57.8104C55.0603 58.4522 54.5941 59.1665 54.2804 59.9624C54.1999 60.1665 54.4507 60.069 54.5089 59.958C54.8675 59.273 55.2282 58.602 55.7256 58.0078C55.8442 57.8717 55.7862 57.62 55.6203 57.8104Z" fill="#528C45"/>
<path d="M51.4595 71.9259C48.7509 71.7469 46.4835 70.1301 44.0502 69.1029C43.9561 69.0643 43.8084 69.255 43.8978 69.3207C45.8539 70.7854 48.8897 72.069 51.3319 72.18C51.4349 72.1823 51.5738 71.9329 51.4595 71.9259Z" fill="#528C45"/>
<path d="M60.249 64.3071C57.211 65.0984 53.8547 64.5973 50.8703 63.7788C50.7492 63.747 50.5746 64.044 50.718 64.0849C53.718 64.9375 57.1458 65.4432 60.1908 64.5065C60.2603 64.484 60.361 64.2776 60.249 64.3071Z" fill="#528C45"/>
<path d="M62.6643 59.7539C60.7151 60.078 58.5552 59.5974 56.6912 59.035C56.5792 59.0009 56.3888 59.2867 56.503 59.3434C58.1923 60.1983 60.7598 60.4999 62.5927 59.9919C62.6755 59.9691 62.8033 59.7288 62.6643 59.7539Z" fill="#528C45"/>
</g>
<g style="mix-blend-mode:multiply">
<path d="M15.0424 65.3638C14.9772 65.2798 14.8272 65.4634 14.8788 65.5338C16.0349 67.1234 16.6488 68.8739 17.5202 70.6108C17.5764 70.7197 17.7443 70.5112 17.7241 70.4318C17.2761 68.5995 16.1849 66.8308 15.0424 65.3638Z" fill="#528C45"/>
<path d="M21.5849 68.0849C21.5537 68.0484 21.4706 68.1506 21.4974 68.1868C22.5774 69.7038 23.0211 71.8762 23.4602 73.663C23.496 73.8125 23.6933 73.6017 23.6775 73.5041C23.4333 71.7197 22.7701 69.4567 21.5849 68.0849Z" fill="#528C45"/>
<path d="M13.6468 69.8399C11.3568 69.0167 8.83866 69.1119 6.44804 69.0961C6.39641 69.0961 6.32025 69.2255 6.38311 69.2299C8.77144 69.4363 11.1419 69.6109 13.4898 70.1552C13.6153 70.1824 13.7945 69.8942 13.6468 69.8399Z" fill="#528C45"/>
<path d="M21.6318 73.5836C20.1979 72.5496 18.0381 72.7175 16.3399 72.62C14.5655 72.5157 12.7193 72.6629 11.0479 73.2957C10.9874 73.3184 10.8956 73.5223 11.0052 73.4951C14.1016 72.6857 18.4371 72.5972 21.4526 73.8399C21.5602 73.8852 21.7394 73.6584 21.6318 73.5836Z" fill="#528C45"/>
<path d="M24.8203 75.867C22.5283 76.291 19.741 77.0303 18.464 79.2139C18.4214 79.2866 18.4998 79.3024 18.5356 79.2457C19.2303 78.2071 20.2251 77.7445 21.2915 77.2093C22.4297 76.6402 23.5903 76.5587 24.7554 76.1619C24.8494 76.1301 24.9882 75.8352 24.8203 75.867Z" fill="#528C45"/>
</g>
<g style="mix-blend-mode:multiply">
<path d="M43.5396 25.3346C42.9794 26.5207 42.2759 27.5365 41.8591 28.7994C41.4289 30.0988 41.2676 31.4888 41.252 32.8515C41.2474 33.1599 41.6104 32.8515 41.6262 32.6748C41.7248 31.3323 41.8772 30.0308 42.2355 28.727C42.5717 27.5182 43.2707 26.4912 43.7098 25.3302C43.7704 25.1737 43.5798 25.2417 43.5396 25.3346Z" fill="#528C45"/>
<path d="M49.629 23.6679C48.3876 24.8674 47.5633 26.4457 47.3391 28.176C47.3077 28.4298 47.6193 28.1623 47.6461 28.0309C47.9776 26.4412 48.5893 25.0125 49.7185 23.8358C49.8261 23.7248 49.7814 23.5228 49.629 23.6679Z" fill="#528C45"/>
<path d="M57.0745 22.9741C55.9654 23.4413 54.9527 24.1328 54.155 25.0467C54.0183 25.2032 54.0699 25.4865 54.2805 25.278C55.114 24.4571 56.0303 23.752 57.0543 23.1849C57.1259 23.1443 57.2202 22.9107 57.0745 22.9741Z" fill="#528C45"/>
<path d="M54.7152 30.4481C52.0398 30.9129 49.2527 30.5772 46.6313 29.9786C46.4611 29.94 46.219 30.3345 46.4207 30.3981C48.8944 31.1941 52.2034 31.4254 54.697 30.5386C54.7241 30.5296 54.7665 30.439 54.7152 30.4481Z" fill="#528C45"/>
<path d="M48.1283 35.2462C45.8384 35.6112 43.813 34.8584 41.6174 34.3617C41.5343 34.3436 41.3955 34.5501 41.4829 34.5886C43.5531 35.4909 45.8586 36.008 48.0723 35.4275C48.1372 35.4094 48.2313 35.2325 48.1283 35.2462Z" fill="#528C45"/>
</g>
<g style="mix-blend-mode:multiply">
<path d="M12.3335 20.5864C12.2977 20.5297 12.1968 20.6477 12.2259 20.6997C13.2521 22.4572 13.6867 24.3981 14.3456 26.3052C14.3768 26.3936 14.5291 26.2281 14.5112 26.1577C14.0677 24.2145 13.4091 22.2666 12.3335 20.5864Z" fill="#528C45"/>
<path d="M19.185 25.9151C18.8714 24.9015 18.3024 23.9809 17.9886 22.9741C17.9663 22.9083 17.8789 23.0059 17.8902 23.0488C18.065 23.7972 18.4637 24.498 18.7416 25.2145C19.23 26.4888 19.4629 27.8198 19.7003 29.1577C19.7228 29.2891 19.8953 29.0987 19.8887 29.0149C19.799 27.9514 19.5033 26.9332 19.185 25.9151Z" fill="#528C45"/>
<path d="M9.86474 25.6771C8.03667 25.3346 6.10971 25.346 4.26352 25.4797C4.19194 25.482 4.08434 25.6815 4.1784 25.6838C6.03813 25.7474 7.86184 25.8085 9.71699 25.9787C9.8356 25.9898 10.0127 25.7042 9.86474 25.6771Z" fill="#528C45"/>
<path d="M17.5293 30.0171C15.9631 29.7064 14.3678 29.6634 12.7772 29.5568C11.1215 29.4456 9.50607 29.1825 7.85259 29.4003C7.82575 29.4027 7.78973 29.4684 7.83011 29.466C9.45674 29.3369 11.0116 29.695 12.6203 29.8743C14.2022 30.0489 15.7905 30.1487 17.3747 30.3301C17.5002 30.3458 17.6794 30.0465 17.5293 30.0171Z" fill="#528C45"/>
<path d="M20.7403 33.6361C18.5937 32.9899 16.3733 33.135 14.2115 33.6361C14.1419 33.6521 14.0456 33.8379 14.1532 33.8198C16.3242 33.4615 18.446 33.4548 20.6012 33.9219C20.7132 33.9468 20.8791 33.6746 20.7403 33.6361Z" fill="#528C45"/>
</g>
<g style="mix-blend-mode:multiply" opacity="0.5">
<path d="M40.7569 15.4163C38.924 16.0534 36.9301 16.897 35.3706 18.0784C35.2945 18.1351 35.2117 18.4276 35.3752 18.3324C37.1363 17.2894 38.9332 16.4435 40.7479 15.5024C40.7791 15.4866 40.8172 15.3982 40.7569 15.4163Z" fill="#84A42E"/>
<path d="M41.0773 11.9312C40.4657 11.9129 39.7778 12.1941 39.191 12.3576C38.5883 12.5275 38.0012 12.786 37.5306 13.2055C37.4902 13.2418 37.4544 13.4027 37.5508 13.3483C38.0773 13.0695 38.5837 12.7997 39.1439 12.5888C39.7645 12.3529 40.4702 12.2939 41.0594 11.9879C41.0707 11.9856 41.1087 11.9312 41.0773 11.9312Z" fill="#84A42E"/>
<path d="M38.0482 9.82917C37.9809 10.6091 37.7279 11.3937 37.367 12.0875C37.3156 12.1874 37.4186 12.2032 37.4723 12.1284C37.9495 11.439 38.176 10.6114 38.1356 9.77461C38.1356 9.71586 38.0505 9.79736 38.0482 9.82917Z" fill="#84A42E"/>
<path d="M34.5641 13.6024C34.6357 12.9673 34.7656 12.3415 34.7612 11.6953C34.7612 11.5525 34.6089 11.7021 34.5953 11.7747C34.3804 13.0263 33.9366 14.5026 34.3489 15.7521C34.3893 15.8835 34.5774 15.6318 34.5731 15.5524C34.5215 14.8925 34.49 14.2623 34.5641 13.6024Z" fill="#84A42E"/>
</g>
<path d="M9.22344 144.683C9.22344 144.683 11.623 141.449 16.8546 142.259C22.0839 143.068 26.2558 144.952 32.1078 140.821C29.2691 145.223 24.2123 147.825 22.0839 151.506C19.9555 155.186 18.5349 159.313 19.0704 163.263C19.5164 158.057 21.2862 151.862 24.9226 148.81C28.559 145.76 34.0593 141.449 36.0108 137.231C35.0339 145.939 37.8726 151.145 40.4426 156.978C43.0147 162.812 45.1431 167.748 44.9683 172.238C45.2326 165.503 44.5225 163.8 42.4813 159.313C40.4426 154.826 37.96 148.63 38.4037 142.975C38.7577 139.297 39.2909 136.875 39.9115 138.399C40.5321 139.925 42.0422 143.336 50.7331 145.311C59.424 147.286 61.5524 150.247 62.4396 153.12C62.0858 148.275 57.0288 145.492 50.9997 144.324C44.9683 143.157 39.6449 138.399 39.6449 131.13C39.6449 123.86 40.9758 117.601 38.713 102.025C36.7367 88.4384 35.621 79.5631 41.9078 71.4885C48.5733 63.6019 55.2388 59.8015 60.7772 57.7131C60.7772 57.7131 51.5779 59.8015 43.7854 66.5473C35.9952 73.291 35.8989 79.3704 35.8989 79.3704C35.8989 79.3704 33.3648 64.2662 33.5553 57.2369C33.7434 50.2074 35.6837 40.3617 42.5889 33.008C47.191 28.4707 58.566 24.6294 58.566 24.6294C58.566 24.6294 48.3829 25.7224 41.7912 32.2687C35.2021 38.8176 32.4462 47.6701 32.4462 47.6701C32.4462 47.6701 32.2939 32.1487 33.1386 25.16C33.9877 18.1736 37.6218 12.0445 42.7098 7.99921C42.7098 7.99921 30.8398 15.4776 29.9907 28.4707C29.1416 41.466 29.5045 43.7948 29.5045 43.7948C29.5045 43.7948 23.6007 24.6726 4.44678 24.0489C14.3318 27.3619 25.7516 31.0467 29.7486 53.4795C33.7434 75.9123 35.4418 93.4451 35.4418 93.4451C35.4418 93.4451 32.8966 71.7901 8.99493 68.3547C8.99493 68.3547 28.5971 71.1755 33.5328 92.1232C35.8114 102.982 36.9361 114.774 36.4499 124.091C35.9661 133.409 34.3931 139.338 26.3409 141.542C21.3243 142.787 19.597 141.681 16.8636 141.442C14.1258 141.209 10.6083 142.329 9.22344 144.683Z" fill="#3D742E"/>
<path d="M44.9685 172.481H44.9573C44.8251 172.476 44.7221 172.363 44.7244 172.227C44.9059 167.701 42.6295 162.542 40.2233 157.079C39.9835 156.54 39.7458 156.007 39.5107 155.478C37.2478 150.451 35.1103 145.692 35.6526 138.42C33.5555 141.946 29.3143 145.474 26.1349 148.118L25.0775 149C20.5314 152.814 19.5166 160.898 19.3104 163.284C19.3014 163.408 19.2007 163.503 19.0752 163.508C18.9497 163.519 18.8488 163.42 18.8309 163.295C18.347 159.716 19.3732 155.705 21.8758 151.381C22.9468 149.528 24.7189 147.966 26.6011 146.311C28.2006 144.903 29.8452 143.454 31.1715 141.73C29.0163 143.03 26.8922 143.642 24.5688 143.642C22.8236 143.642 21.1476 143.313 19.3732 142.966C18.5487 142.803 17.6927 142.635 16.8144 142.501C16.2723 142.417 15.7322 142.374 15.2126 142.374C11.2983 142.374 9.43884 144.805 9.42094 144.83C9.34018 144.932 9.19679 144.959 9.08919 144.887C8.98618 144.814 8.95475 144.669 9.01761 144.558C10.3843 142.227 13.6644 141.168 16.1335 141.168C16.3843 141.168 16.6398 141.179 16.8817 141.2C17.6165 141.263 18.2844 141.388 18.9341 141.513C19.8929 141.692 20.8833 141.878 22.1268 141.878C23.3703 141.878 24.7278 141.692 26.2852 141.304C33.9833 139.195 35.713 133.624 36.2083 124.082C36.6876 114.898 35.6256 103.268 33.2978 92.1754C28.4652 71.6789 9.22364 68.6359 8.96392 68.5995C8.82948 68.579 8.73977 68.4543 8.75767 68.3206C8.77557 68.1868 8.8967 68.0893 9.03115 68.1142C26.6795 70.6493 32.7958 83.214 34.7877 89.6289C34.0664 83.2569 32.3725 69.5882 29.5091 53.5247C25.5636 31.3822 14.408 27.6452 4.56765 24.3459L4.37058 24.2825C4.25632 24.244 4.18681 24.1237 4.20929 24.0036C4.22719 23.8834 4.31689 23.7972 4.45569 23.8019C20.4327 24.3234 27.3268 37.7699 29.1909 42.2711C29.1617 40.3912 29.231 36.432 29.7509 28.4569C30.5933 15.4866 42.4611 7.86777 42.5822 7.79277C42.6919 7.72474 42.833 7.75423 42.9094 7.8608C42.981 7.96529 42.9608 8.11251 42.8578 8.19424C37.642 12.3415 34.1871 18.5365 33.3804 25.1918C32.6926 30.8697 32.668 42.3435 32.6813 46.2937C33.7232 43.5749 36.5621 37.1237 41.6209 32.0943C48.1947 25.5638 58.4381 24.3958 58.5412 24.3868C58.6623 24.3686 58.7742 24.4571 58.8011 24.5772C58.8279 24.6998 58.7586 24.8244 58.6421 24.863C58.5278 24.9015 47.2671 28.7381 42.7568 33.1826C35.3097 41.1191 33.945 51.6632 33.7973 57.2436C33.6449 62.8535 35.2624 73.774 35.8922 77.7968C36.4187 75.5382 38.1192 71.1302 43.6284 66.3615C51.3762 59.6541 60.6294 57.4953 60.7235 57.4726C60.849 57.4454 60.9744 57.5202 61.0056 57.6428C61.046 57.7651 60.9788 57.8989 60.8579 57.9421C53.7622 60.6223 47.6255 65.103 42.0915 71.6471C36.0243 79.4384 36.8936 87.8307 38.9525 101.992C40.6441 113.626 40.335 120.001 40.0661 125.622C39.9721 127.506 39.889 129.286 39.889 131.13C39.889 138.585 45.4905 143.009 51.0446 144.084C55.1849 144.887 62.1842 147.114 62.675 153.025C62.6862 153.052 62.6951 153.086 62.6951 153.12C62.6951 153.256 62.583 153.365 62.4508 153.365H62.4396C62.3366 153.365 62.2402 153.299 62.209 153.191C61.3821 150.522 59.368 147.524 50.6771 145.549C41.7331 143.517 40.2992 139.996 39.6896 138.492C39.6204 138.329 39.5687 138.247 39.5373 138.207C39.4118 138.361 39.0176 139.141 38.6457 143.002C38.2156 148.501 40.5904 154.553 42.7009 159.209C44.6682 163.535 45.4813 165.327 45.208 172.243V172.247C45.2037 172.379 45.0986 172.481 44.9685 172.481ZM36.011 136.987C36.0312 136.987 36.0558 136.991 36.0759 136.996C36.1902 137.03 36.262 137.141 36.2508 137.259C35.3748 145.093 37.5929 150.039 39.9475 155.272C40.1873 155.807 40.4293 156.338 40.6645 156.878C42.3292 160.655 43.9333 164.288 44.7175 167.694C44.5025 164.342 43.7138 162.61 42.262 159.415C40.1246 154.705 37.7205 148.576 38.1642 142.957C38.6682 137.69 39.2351 137.69 39.5375 137.69C39.8491 137.69 40.0283 138.043 40.1359 138.309C40.7207 139.739 42.0828 143.095 50.7849 145.073C57.1703 146.522 60.0584 148.54 61.5033 150.603C59.5945 146.817 54.3069 145.213 50.9529 144.565C45.2039 143.452 39.4031 138.864 39.4031 131.13C39.4031 129.275 39.4905 127.488 39.5825 125.597C39.8534 119.998 40.1604 113.651 38.4734 102.062C36.5846 89.0688 35.2179 79.6811 41.7175 71.3364C46.1381 66.1075 50.9416 62.1825 56.301 59.4318C52.9358 60.7447 48.2082 63.0418 43.9423 66.7356C36.3425 73.3161 36.1455 79.3161 36.1432 79.375C36.1411 79.5041 36.0468 79.6084 35.9192 79.6175C35.7915 79.6335 35.6838 79.5383 35.6616 79.4136C35.6368 79.2615 33.1253 64.2028 33.3134 57.2299C33.4614 51.5794 34.8483 40.899 42.4099 32.838C45.6653 29.6316 52.1358 26.813 55.8036 25.3845C52.3285 26.1849 46.3196 28.117 41.9619 32.4433C35.4957 38.8696 32.7041 47.6541 32.6772 47.7426C32.6414 47.8582 32.5382 47.9309 32.4106 47.9104C32.2941 47.8944 32.2067 47.7902 32.2023 47.6722C32.2023 47.5159 32.0589 32.0558 32.9011 25.1328C33.5061 20.1533 35.5606 15.4277 38.7176 11.5911C35.2358 14.9698 30.737 20.7654 30.2306 28.4888C29.4017 41.2415 29.7422 43.7358 29.7465 43.7585C29.7646 43.8855 29.6839 44.0035 29.5607 44.0351C29.4329 44.0692 29.3143 43.9898 29.2762 43.8674C29.2179 43.6858 23.5965 26.1624 6.31107 24.4186C15.8623 27.6747 26.2021 32.1916 29.9886 53.4365C33.9409 75.622 35.666 93.2456 35.6839 93.4202C35.6974 93.5539 35.5987 93.6719 35.4689 93.6877C35.3209 93.7037 35.2179 93.6062 35.2023 93.4745C35.1798 93.2795 32.9415 76.1301 15.5709 70.1663C21.8063 72.8898 30.6833 78.9692 33.7707 92.0665C36.1097 103.207 37.1717 114.882 36.6922 124.105C36.1858 133.878 34.3933 139.59 26.4084 141.778C24.8042 142.177 23.4061 142.368 22.1268 142.368C20.8383 142.368 19.8257 142.177 18.8488 141.993C18.1811 141.869 17.5493 141.751 16.8413 141.69C15.8063 141.597 14.6278 141.708 13.4538 142.046C14.444 141.857 15.6517 141.826 16.8906 142.016C17.7757 142.152 18.6338 142.32 19.4673 142.485C21.2171 142.826 22.8683 143.15 24.5688 143.15C27.1701 143.15 29.5226 142.347 31.9692 140.624C32.0633 140.556 32.1934 140.565 32.2739 140.647C32.359 140.728 32.3748 140.857 32.3097 140.957C30.8556 143.213 28.8527 144.975 26.9191 146.678C26.2021 147.313 25.4964 147.932 24.8444 148.558L25.8279 147.739C29.2941 144.855 34.0439 140.905 35.7915 137.129C35.8318 137.039 35.9192 136.987 36.011 136.987ZM20.6479 154.93C19.9512 156.61 19.5077 158.231 19.3104 159.782C19.5882 158.32 20.014 156.617 20.6479 154.93Z" fill="#346227"/>
<g style="mix-blend-mode:multiply" opacity="0.4">
<path d="M35.9281 41.8334C31.4449 53.3571 32.1708 55.5634 33.0222 65.4952C33.8647 75.4249 35.7556 87.1209 35.899 79.3704C35.899 79.3704 33.365 64.2662 33.5554 57.2369C33.7435 50.2073 35.6838 40.3617 42.5891 33.008C47.1911 28.4706 58.5661 24.6294 58.5661 24.6294C58.5661 24.6294 57.6899 24.7246 56.2964 25.0195C49.9557 27.0285 39.7391 31.736 35.9281 41.8334Z" fill="#3D742E"/>
<path d="M9.29314 68.4071C9.10501 68.373 8.99512 68.3547 8.99512 68.3547C9.09813 68.3706 9.19242 68.3912 9.29314 68.4071Z" fill="#3D742E"/>
<path d="M50.9999 144.324C44.9685 143.157 39.6451 138.399 39.6451 131.129C39.6451 123.86 40.976 117.601 38.7132 102.025C36.7369 88.4384 35.6212 79.5631 41.908 71.4884C48.5735 63.6019 55.239 59.8015 60.7774 57.7131C60.7774 57.7131 60.7101 57.7289 60.6117 57.7537C56.7223 59.2572 47.2763 63.4001 41.9841 69.9079C35.1977 78.2435 35.5093 84.4179 36.6541 93.198C37.9827 103.402 39.961 115.665 36.4501 114.805C36.5981 118.071 36.6025 121.2 36.4501 124.091C35.9663 133.409 34.3933 139.338 26.3411 141.542C21.3245 142.787 19.5972 141.681 16.8638 141.442C14.126 141.209 10.6085 142.329 9.22363 144.683C9.22363 144.683 11.6232 141.449 16.8548 142.259C22.0841 143.068 26.256 144.952 32.108 140.821C29.2693 145.222 24.2125 147.825 22.0841 151.506C19.9557 155.186 18.5351 159.313 19.0706 163.263C19.5166 158.057 21.2864 151.862 24.9228 148.81C28.5592 145.76 34.0595 141.449 36.011 137.231C35.0341 145.939 37.8728 151.145 40.4428 156.977C43.0149 162.812 45.1433 167.748 44.9685 172.238C45.2328 165.503 44.5227 163.8 42.4815 159.313C40.4428 154.825 37.9602 148.63 38.4039 142.975C38.7579 139.297 39.2911 136.875 39.9117 138.399C40.5323 139.925 42.0424 143.336 50.7333 145.311C59.4242 147.286 61.5526 150.247 62.4398 153.12C62.086 148.274 57.029 145.492 50.9999 144.324Z" fill="#3D742E"/>
<path d="M32.2334 47.9694C32.294 47.5159 32.3635 47.0555 32.4397 46.5953C32.4218 42.9693 32.4261 31.0443 33.1387 25.16C33.9878 18.1736 37.6219 12.0445 42.7099 7.99921C42.7099 7.99921 38.7622 10.4911 35.2582 15.0898C33.3895 18.8268 31.2476 24.668 31.2476 31.8131C31.2476 44.4751 31.5816 53.1235 32.2334 47.9694Z" fill="#3D742E"/>
</g>
<path d="M21.5039 152.807C21.5039 152.807 20.0991 153.943 18.1857 155.363C16.2677 156.78 13.0415 159.902 11.7778 164.397C12.9027 159.855 13.1356 158.957 15.7524 156.639C18.3738 154.32 22.25 151.055 22.25 151.055L21.5039 152.807Z" fill="#EBD9B3"/>
<path d="M11.778 164.644C11.7601 164.644 11.7399 164.642 11.7154 164.635C11.5899 164.601 11.5137 164.469 11.5428 164.338C12.6698 159.785 12.9029 158.837 15.5913 156.454C18.1813 154.161 22.0574 150.9 22.0978 150.866C22.1829 150.794 22.3084 150.792 22.3979 150.86C22.4853 150.928 22.519 151.048 22.4741 151.154L21.7259 152.905C21.7078 152.941 21.6878 152.973 21.6564 152.998C21.6406 153.009 20.2248 154.152 18.3293 155.558C17.1977 156.395 13.4046 159.513 12.0134 164.467C11.9819 164.574 11.8856 164.644 11.778 164.644ZM21.625 151.903C20.3546 152.977 17.7961 155.157 15.9141 156.823C14.2067 158.336 13.5434 159.204 12.9609 160.941C14.7197 157.805 17.1619 155.812 18.0425 155.163C19.7363 153.907 21.047 152.864 21.3047 152.653L21.625 151.903Z" fill="#BD7A43"/>
<path d="M15.2418 157.016C15.2418 157.016 9.63168 159.055 6.07373 164.254C6.40089 161.934 9.02209 159.664 10.9848 158.671C12.9476 157.676 15.2418 157.016 15.2418 157.016Z" fill="#EBD9B3"/>
<path d="M6.07386 164.501C6.04702 164.501 6.01788 164.494 5.98874 164.483C5.88114 164.442 5.82287 164.333 5.83641 164.22C6.19477 161.678 9.04471 159.377 10.8774 158.451C12.8378 157.458 15.15 156.789 15.1748 156.782C15.3002 156.744 15.4301 156.816 15.4705 156.941C15.5086 157.068 15.4436 157.202 15.3225 157.247C15.2688 157.268 9.74377 159.322 6.27553 164.397C6.22849 164.463 6.15439 164.501 6.07386 164.501ZM11.6572 158.615C11.4691 158.705 11.2763 158.796 11.0949 158.889C9.46157 159.714 7.65553 161.265 6.79518 162.893C8.34335 161.002 10.1336 159.599 11.6572 158.615Z" fill="#BD7A43"/>
<path d="M10.0505 159.191C10.0505 159.191 5.00032 159.567 1.68213 161.791C3.17891 159.379 7.94662 158.481 10.0505 159.191Z" fill="#EBD9B3"/>
<path d="M1.68226 162.036C1.62192 162.036 1.55905 162.014 1.51202 161.968C1.43149 161.889 1.41566 161.76 1.47623 161.662C2.67934 159.723 5.8273 158.71 8.32094 158.71C9.02207 158.71 9.64496 158.796 10.1291 158.957C10.2364 158.996 10.3036 159.104 10.2903 159.222C10.2768 159.338 10.1827 159.426 10.0708 159.435C10.0169 159.438 5.04083 159.834 1.8167 161.998C1.77632 162.025 1.72929 162.036 1.68226 162.036ZM8.12593 159.202C6.43666 159.241 4.40234 159.775 3.02876 160.753C4.80108 159.909 6.73698 159.449 8.12593 159.202Z" fill="#BD7A43"/>
<path d="M30.9594 143.705C30.9594 143.705 28.9407 147.3 30.8002 152.859C32.6553 158.417 35.9669 162.011 34.6763 167.569C34.6763 163.565 33.3835 160.542 31.8489 157.762C30.314 154.984 30.1504 153.839 30.1504 153.839C30.1504 153.839 28.3761 157.68 27.8114 161.113C27.5694 158.252 29.0212 154.821 29.0212 154.821C29.0212 154.821 23.2094 161.767 21.9996 166.671C21.2691 164.057 24.7419 158.252 28.7794 154.168C29.9914 152.859 28.134 145.585 30.9594 143.705Z" fill="#EBD9B3"/>
<path d="M34.6763 167.816L34.6449 167.814C34.524 167.798 34.4343 167.694 34.4343 167.569C34.4343 163.506 33.0878 160.51 31.6382 157.882C30.7419 156.265 30.3096 155.191 30.099 154.567C29.5858 155.787 28.4701 158.601 28.0512 161.154C28.031 161.274 27.919 161.349 27.8002 161.358C27.6815 161.354 27.5806 161.256 27.5694 161.134C27.417 159.361 27.8965 157.401 28.2976 156.12C26.6216 158.288 23.1288 163.109 22.2327 166.728C22.2056 166.837 22.1115 166.912 21.9996 166.914C21.892 166.914 21.7935 166.841 21.7644 166.735C20.9823 163.93 24.7105 157.939 28.6091 153.993C29.0168 153.553 29.0168 152.077 29.0168 150.517C29.0122 147.93 29.0122 144.71 30.8272 143.501C30.9213 143.44 31.0445 143.447 31.1273 143.526C31.2081 143.603 31.226 143.728 31.172 143.826C31.1521 143.862 29.2318 147.404 31.0286 152.78C31.58 154.433 32.2611 155.907 32.9152 157.331C34.4813 160.723 35.8324 163.651 34.9115 167.626C34.8846 167.737 34.786 167.816 34.6763 167.816ZM30.2133 144.955C29.4963 146.381 29.4984 148.626 29.5007 150.517C29.5007 152.32 29.5007 153.744 28.9585 154.333C25.3783 157.957 22.6404 162.467 22.2056 165.202C23.9713 160.508 28.6224 154.921 28.8376 154.662C28.9138 154.569 29.0437 154.547 29.1513 154.61C29.2499 154.676 29.2901 154.805 29.2453 154.916C29.2341 154.936 28.636 156.374 28.282 158.138C29.0079 155.751 29.9196 153.762 29.9308 153.735C29.9802 153.637 30.0742 153.578 30.1864 153.596C30.2938 153.612 30.3789 153.698 30.3924 153.805C30.3947 153.814 30.5762 154.959 32.0595 157.642C33.211 159.726 34.2955 162.034 34.7256 164.911C34.6763 162.304 33.6368 160.052 32.4784 157.538C31.8174 156.102 31.1319 154.617 30.5693 152.937C29.355 149.304 29.7606 146.508 30.2133 144.955Z" fill="#BD7A43"/>
<path d="M33.1078 160.317C33.1078 160.317 29.6306 164.152 29.8635 171.043C28.8554 167.599 30.1704 162.118 32.57 159.143L33.1078 160.317Z" fill="#EBD9B3"/>
<path d="M29.8636 171.288C29.7562 171.288 29.6619 171.22 29.6284 171.113C28.618 167.646 29.8771 162.095 32.382 158.986C32.4357 158.923 32.5119 158.891 32.6016 158.9C32.6821 158.909 32.7539 158.964 32.7897 159.041L33.3298 160.213C33.3722 160.304 33.3543 160.411 33.2917 160.483C33.2557 160.519 29.904 164.306 30.101 170.957C30.1123 170.984 30.1146 171.014 30.1146 171.043C30.1146 171.179 29.9891 171.274 29.8682 171.288H29.8636ZM32.5187 159.61C30.9524 161.73 29.9308 164.939 29.7874 167.755C30.3924 163.438 32.335 160.866 32.8255 160.279L32.5187 159.61Z" fill="#BD7A43"/>
<path d="M39.9879 156.005C39.9879 156.005 37.4227 163.644 38.955 169.855C37.1783 165.2 37.9065 158.905 39.1971 154.331C39.9252 155.558 39.9879 156.005 39.9879 156.005Z" fill="#EBD9B3"/>
<path d="M38.9551 170.104C38.861 170.104 38.767 170.041 38.7289 169.946C36.4929 164.084 38.3457 156.46 38.964 154.263C38.9909 154.17 39.0671 154.102 39.168 154.086C39.2598 154.082 39.3538 154.123 39.4055 154.204C40.136 155.435 40.2188 155.918 40.2277 155.968C40.2344 156.007 40.2323 156.045 40.2188 156.082C40.1919 156.159 37.7095 163.671 39.1703 169.728C39.1971 169.764 39.2104 169.809 39.2104 169.855C39.2104 169.995 39.0872 170.111 38.9597 170.104H38.9551ZM39.2777 154.962C38.758 156.957 37.8483 161.209 38.2315 165.431C38.2381 160.841 39.5511 156.578 39.737 155.993C39.7078 155.882 39.6005 155.56 39.2777 154.962Z" fill="#BD7A43"/>
<path d="M44.2365 163.875C44.2365 163.875 47.5749 167.127 48.8092 173.755C48.5628 169.002 47.3282 165.25 43.8086 162.186C44.2991 163.438 44.2365 163.875 44.2365 163.875Z" fill="#EBD9B3"/>
<path d="M48.8091 174C48.6949 174 48.5942 173.918 48.5717 173.8C47.3642 167.324 44.0997 164.084 44.0683 164.05C44.0123 163.998 43.9855 163.918 43.9967 163.839C43.9967 163.839 44.0281 163.413 43.5798 162.277C43.5397 162.172 43.5755 162.052 43.6652 161.989C43.7569 161.921 43.8801 161.925 43.9653 161.998C47.25 164.859 48.7734 168.372 49.0535 173.744C49.0601 173.871 48.9661 173.984 48.8406 174H48.8091ZM44.4806 163.776C44.8928 164.204 46.8063 166.333 48.1528 170.277C47.5501 167.268 46.3357 164.97 44.344 163.014C44.4471 163.395 44.4762 163.639 44.4806 163.776Z" fill="#BD7A43"/>
<path d="M22.6269 143.231C22.6269 143.231 22.1341 143.095 20.3909 145.585C18.648 148.075 15.5649 151.422 13.0601 151.422C16.6806 149.025 18.2469 147.352 19.2752 145.268C20.3014 143.186 21.3297 142.642 21.3297 142.642L22.6269 143.231Z" fill="#EBD9B3"/>
<path d="M13.0597 151.667C12.9521 151.667 12.858 151.597 12.8266 151.492C12.7954 151.388 12.8378 151.277 12.9275 151.218C16.3263 148.966 17.9866 147.324 19.0576 145.159C20.1084 143.032 21.1704 142.451 21.2174 142.427C21.2867 142.392 21.3608 142.388 21.4301 142.42L22.6917 142.993C22.7991 143.016 22.8821 143.114 22.8821 143.231C22.8821 143.367 22.7477 143.474 22.6334 143.476C22.6176 143.476 22.5864 143.476 22.5639 143.467C22.5997 143.479 22.089 143.585 20.5922 145.728C19.8932 146.717 16.2636 151.667 13.0597 151.667ZM21.3496 142.921C21.0853 143.109 20.2852 143.767 19.4898 145.377C18.4861 147.41 16.9941 148.991 14.1531 150.973C16.2457 150.243 18.6251 147.685 20.1935 145.442C20.9598 144.352 21.5916 143.606 22.0619 143.243L21.3496 142.921Z" fill="#BD7A43"/>
<path d="M18.4684 148.027C18.4684 148.027 17.3527 152.1 15.3408 153.775C17.5298 152.69 18.9144 149.612 19.275 146.941C18.8717 147.624 18.4684 148.027 18.4684 148.027Z" fill="#EBD9B3"/>
<path d="M15.3406 154.02C15.2598 154.02 15.1791 153.982 15.1343 153.909C15.0694 153.803 15.0896 153.665 15.186 153.587C17.115 151.98 18.2263 148.002 18.2353 147.964C18.2465 147.921 18.2665 147.884 18.2979 147.855C18.3025 147.851 18.6833 147.458 19.0665 146.817C19.1268 146.717 19.2457 146.676 19.3533 146.712C19.4606 146.751 19.5301 146.86 19.5168 146.975C19.1582 149.642 17.7601 152.848 15.4436 153.993C15.4122 154.014 15.3764 154.02 15.3406 154.02ZM18.6833 148.154C18.5847 148.51 18.0627 150.247 17.1574 151.844C17.9618 150.742 18.5264 149.338 18.84 147.98C18.7728 148.059 18.7191 148.116 18.6833 148.154Z" fill="#BD7A43"/>
<path d="M13.8211 142.173C13.8211 142.173 12.6113 147.139 8.61193 149.1C4.61486 151.061 3.82861 153.206 3.82861 153.206C3.82861 153.206 6.12953 151 7.94659 150.141C9.76365 149.284 13.0325 148.059 14.6075 142.114L13.8211 142.173Z" fill="#EBD9B3"/>
<path d="M3.82858 153.451C3.78154 153.451 3.73451 153.438 3.69413 153.41C3.60007 153.347 3.55969 153.227 3.60007 153.12C3.63356 153.03 4.46936 150.862 8.50658 148.88C12.3513 146.993 13.5723 142.164 13.5836 142.116C13.6104 142.011 13.6957 141.937 13.8031 141.93L14.5873 141.869C14.6681 141.857 14.7442 141.894 14.7936 141.955C14.8429 142.016 14.8628 142.098 14.8429 142.175C13.3236 147.919 10.205 149.363 8.3453 150.225L8.04956 150.365C6.28849 151.193 4.01671 153.363 3.99422 153.383C3.94948 153.429 3.88685 153.451 3.82858 153.451ZM14.0094 142.404C13.7538 143.322 12.396 147.517 8.71949 149.32C7.27204 150.027 6.25728 150.764 5.54927 151.408C6.26623 150.848 7.09056 150.277 7.84354 149.918L8.14363 149.778C9.88911 148.971 12.7904 147.626 14.2826 142.383L14.0094 142.404Z" fill="#BD7A43"/>
<path d="M10.9133 148.243C10.9133 148.243 11.0968 150.388 9.34035 152.286C7.521 154.372 7.521 155.29 7.521 155.29C7.521 155.29 11.4598 152.166 11.7624 147.567L10.9133 148.243Z" fill="#EBD9B3"/>
<path d="M7.52111 155.535C7.48532 155.535 7.45183 155.526 7.41581 155.51C7.33298 155.469 7.2793 155.383 7.2793 155.29C7.2793 155.188 7.33298 154.215 9.15669 152.125C10.826 150.32 10.6757 148.281 10.6714 148.263C10.6668 148.179 10.6982 148.098 10.7654 148.05L11.6125 147.374C11.6886 147.315 11.7917 147.306 11.8768 147.352C11.9573 147.395 12.0112 147.485 12.0023 147.585C11.6976 152.236 7.83497 155.352 7.67139 155.481C7.62871 155.517 7.57503 155.535 7.52111 155.535ZM11.1642 148.356C11.1731 148.873 11.0926 150.751 9.51529 152.456C8.76254 153.318 8.33236 153.973 8.09032 154.435C9.15004 153.368 11.0612 151.075 11.4645 148.116L11.1642 148.356Z" fill="#BD7A43"/>
<path d="M13.4581 142.114C13.4581 142.114 8.49101 140.091 4.73828 141.869C6.91829 140.275 11.4596 140.456 14.3051 141.805L13.4581 142.114Z" fill="#EBD9B3"/>
<path d="M13.4582 142.356C13.427 142.356 13.3956 142.352 13.3688 142.34C13.344 142.329 10.9781 141.381 8.33652 141.381C7.01021 141.381 5.83165 141.619 4.83915 142.089C4.73154 142.141 4.59045 142.1 4.52781 141.991C4.46266 141.882 4.49179 141.742 4.59504 141.667C5.63457 140.905 7.25661 140.488 9.16108 140.488C11.0252 140.488 12.9386 140.887 14.4083 141.585C14.4957 141.624 14.5517 141.717 14.5471 141.817C14.5427 141.916 14.4801 142.002 14.3858 142.037L13.539 142.345C13.5122 142.352 13.4853 142.356 13.4582 142.356ZM10.0841 141.012C11.7825 141.236 13.1088 141.717 13.4605 141.851L13.642 141.785C12.5846 141.368 11.3411 141.1 10.0841 141.012Z" fill="#BD7A43"/>
<path d="M39.0271 149.624C39.0271 149.624 40.0845 151.268 43.0016 153.447C45.9188 155.628 49.3646 157.032 51.0853 161.97C50.1286 157.562 48.072 156.306 45.4393 154.512C42.8089 152.721 39.2241 150.157 38.6953 147.975C38.933 149.379 39.0271 149.624 39.0271 149.624Z" fill="#EBD9B3"/>
<path d="M51.0852 162.215C50.9868 162.215 50.8925 162.154 50.8567 162.052C49.499 158.148 47.012 156.478 44.6058 154.864C44.0279 154.474 43.4272 154.073 42.8582 153.646C39.9367 151.467 38.8701 149.826 38.8254 149.755C38.7939 149.687 38.6932 149.408 38.4578 148.02C38.4333 147.889 38.5184 147.762 38.6462 147.735C38.7694 147.714 38.897 147.792 38.9284 147.916C39.4705 150.152 43.5931 152.959 45.5737 154.311L45.8539 154.501C48.3833 156.213 50.3795 157.571 51.3227 161.918C51.3518 162.045 51.2757 162.172 51.1525 162.209C51.1323 162.213 51.1077 162.215 51.0852 162.215ZM41.2362 151.68C41.7535 152.154 42.3877 152.683 43.145 153.252C43.705 153.669 44.3011 154.068 44.8747 154.456C46.4072 155.485 47.9687 156.535 49.2751 158.15C48.2936 156.748 47.0301 155.887 45.5827 154.905L45.3048 154.717C43.8395 153.721 42.4102 152.696 41.2362 151.68Z" fill="#BD7A43"/>
<path d="M41.8055 152.093C41.8055 152.093 46.0625 151.948 48.5986 153.109C46.9252 151.9 44.772 151.125 41.2319 151.318C41.6128 151.705 41.6621 152.043 41.8055 152.093Z" fill="#EBD9B3"/>
<path d="M48.5984 153.354C48.5672 153.354 48.5312 153.347 48.5 153.333C46.526 152.429 43.4836 152.331 42.2623 152.331C41.9801 152.331 41.8165 152.338 41.8143 152.338C41.7897 152.338 41.756 152.336 41.7291 152.324C41.5745 152.275 41.4983 152.134 41.4155 151.989C41.3393 151.85 41.243 151.676 41.0592 151.49C40.992 151.422 40.9674 151.32 41.0032 151.229C41.0413 151.138 41.1241 151.079 41.2182 151.073C41.5857 151.052 41.9398 151.046 42.2802 151.046C44.9062 151.046 46.9495 151.626 48.697 152.882C48.789 152.918 48.854 153.007 48.854 153.109C48.854 153.245 48.7464 153.354 48.6096 153.354H48.5984ZM42.2623 151.841C43.1048 151.841 44.7807 151.887 46.4207 152.202C45.0877 151.692 43.5753 151.485 41.7179 151.542C41.7695 151.621 41.8053 151.692 41.8367 151.748C41.8569 151.78 41.8771 151.819 41.8927 151.844C41.9755 151.844 42.101 151.841 42.2623 151.841Z" fill="#BD7A43"/>
<path d="M44.9956 143.44C44.9956 143.44 50.0726 147.701 51.9502 150.835C53.8255 153.966 58.5439 158.435 60.7776 158.229C57.6813 156.329 55.1452 154.123 53.8255 151.762C52.5059 149.399 50.4759 146.009 48.5492 144.674L44.9956 143.44Z" fill="#EBD9B3"/>
<path d="M60.6231 158.481C58.1293 158.481 53.5139 153.921 51.7395 150.962C49.9069 147.9 44.8925 143.671 44.8432 143.631C44.7491 143.553 44.7266 143.424 44.7849 143.322C44.8432 143.218 44.9687 143.168 45.0763 143.209L48.6296 144.442C48.6475 144.449 48.6654 144.46 48.6856 144.469C50.655 145.835 52.6827 149.216 54.0361 151.64C55.2392 153.796 57.614 156 60.903 158.021C60.9905 158.075 61.0331 158.181 61.0106 158.284C60.9882 158.388 60.903 158.465 60.7977 158.474C60.7418 158.478 60.6835 158.481 60.6231 158.481ZM46.1092 144.086C47.6819 145.488 50.7583 148.379 52.1562 150.708C53.7828 153.427 57.2689 156.819 59.5678 157.746C56.7672 155.875 54.7193 153.862 53.6149 151.88C52.2906 149.51 50.3189 146.211 48.4392 144.896L46.1092 144.086Z" fill="#BD7A43"/>
<path d="M55.9072 154.585C55.9072 154.585 63.4173 156.329 67.3248 161.054C64.9902 157.358 60.3725 154.175 55.2979 153.762L55.9072 154.585Z" fill="#EBD9B3"/>
<path d="M67.3247 161.299C67.2529 161.299 67.1857 161.268 67.1363 161.211C63.3297 156.608 55.925 154.841 55.8534 154.823C55.7972 154.81 55.7458 154.778 55.71 154.733L55.105 153.912C55.049 153.834 55.0421 153.73 55.0871 153.644C55.1318 153.558 55.2394 153.506 55.3156 153.517C60.1416 153.909 64.9341 156.814 67.5284 160.923C67.5957 161.03 67.5688 161.175 67.4635 161.252C67.4231 161.283 67.3738 161.299 67.3247 161.299ZM56.0505 154.365C56.7227 154.538 61.1364 155.719 64.7838 158.381C62.3328 156.07 59.066 154.463 55.8219 154.064L56.0505 154.365Z" fill="#BD7A43"/>
<path d="M60.4351 148.531C60.4351 148.531 68.1066 149.345 71.7407 153.349C68.1894 149.184 62.3732 147.383 59.3843 147.71L60.4351 148.531Z" fill="#EBD9B3"/>
<path d="M71.7406 153.594C71.6755 153.594 71.6083 153.567 71.5592 153.517C68.0324 149.626 60.4866 148.783 60.4104 148.773C60.3634 148.769 60.3207 148.751 60.2893 148.724L59.2364 147.907C59.158 147.844 59.1242 147.739 59.1513 147.644C59.1782 147.549 59.261 147.476 59.3573 147.467C59.5948 147.44 59.8502 147.429 60.119 147.429C63.5448 147.429 68.7003 149.408 71.9221 153.191C72.0093 153.293 72.0003 153.445 71.8996 153.533C71.8549 153.576 71.7966 153.594 71.7406 153.594ZM60.527 148.29C61.0691 148.354 64.2999 148.778 67.4455 150.157C64.9069 148.687 62.1444 147.919 60.119 147.919H60.0497L60.527 148.29Z" fill="#BD7A43"/>
<path d="M46.5459 144.932C46.5459 144.932 48.7259 148.281 49.8574 152.37C50.9867 156.456 54.1367 159.807 54.4593 162.34C54.7821 164.873 55.508 169.041 57.7662 170.839C55.7498 166.426 55.508 166.181 54.8626 161.522C54.1367 157.027 52.7611 157.438 51.4705 154.086C50.18 150.735 49.4518 148.61 48.4033 146.404L46.5459 144.932Z" fill="#EBD9B3"/>
<path d="M57.7663 171.086C57.7172 171.086 57.6633 171.066 57.6185 171.032C55.06 168.998 54.4281 164.011 54.2175 162.372C54.0652 161.181 53.2519 159.78 52.3085 158.163C51.3226 156.469 50.2069 154.551 49.6221 152.435C48.5153 148.431 46.3622 145.102 46.3399 145.068C46.2771 144.968 46.295 144.832 46.378 144.751C46.4675 144.674 46.6019 144.667 46.6939 144.739L48.5534 146.209C48.5826 146.236 48.6073 146.263 48.6207 146.297C49.4005 147.937 50.0121 149.553 50.7851 151.601C51.0606 152.331 51.3586 153.123 51.6991 153.996C52.2031 155.306 52.7164 156.02 53.2092 156.712C53.953 157.748 54.6566 158.728 55.1001 161.483C55.6895 165.739 55.9382 166.272 57.5357 169.75L57.9904 170.735C58.0352 170.839 58.0083 170.961 57.9209 171.032C57.8739 171.066 57.8225 171.086 57.7663 171.086ZM47.4198 145.939C48.1636 147.272 49.3555 149.642 50.0904 152.304C50.6573 154.356 51.7574 156.247 52.7253 157.914C53.6976 159.578 54.5355 161.016 54.6991 162.309C54.8693 163.646 55.3332 167.286 56.9059 169.542C55.4498 166.37 55.1965 165.703 54.6206 161.558C54.1973 158.921 53.5542 158.03 52.8171 157C52.3286 156.32 51.7753 155.544 51.2464 154.175C50.9083 153.299 50.6102 152.508 50.3324 151.776C49.5707 149.762 48.968 148.168 48.2084 146.563L47.4198 145.939Z" fill="#BD7A43"/>
<path d="M54.5402 160.705C54.5402 160.705 58.4161 163.565 60.9189 167.163C59.142 162.667 54.3789 159.315 54.3789 159.315L54.5402 160.705Z" fill="#EBD9B3"/>
<path d="M60.9189 167.408C60.8428 167.408 60.7687 167.369 60.7239 167.304C58.2684 163.78 54.4349 160.932 54.3968 160.905C54.3431 160.864 54.3071 160.803 54.3005 160.732L54.1369 159.342C54.1279 159.25 54.1727 159.154 54.2534 159.104C54.3362 159.057 54.4393 159.059 54.5177 159.116C54.715 159.254 59.3595 162.56 61.1452 167.07C61.1899 167.186 61.1406 167.317 61.0332 167.376C60.9972 167.397 60.957 167.408 60.9189 167.408ZM54.7687 160.574C55.228 160.923 57.4528 162.655 59.496 164.973C57.874 162.488 55.6268 160.59 54.6836 159.85L54.7687 160.574Z" fill="#BD7A43"/>
<path d="M46.6268 155.721C46.6268 155.721 46.7858 159.887 48.3206 163.404C46.304 160.46 45.9009 155.395 45.9009 155.395L46.6268 155.721Z" fill="#EBD9B3"/>
<path d="M48.3208 163.649C48.2444 163.649 48.1682 163.61 48.1234 163.542C46.0891 160.578 45.6725 155.621 45.6589 155.413C45.65 155.327 45.6904 155.243 45.7576 155.191C45.8292 155.145 45.9189 155.134 45.9974 155.168L46.721 155.497C46.8061 155.535 46.8644 155.619 46.8687 155.71C46.8687 155.751 47.0435 159.825 48.5155 163.24C48.5536 163.284 48.5761 163.34 48.5761 163.404C48.5761 163.538 48.4662 163.649 48.3318 163.649H48.3208ZM46.1832 155.789C46.2594 156.436 46.4431 157.757 46.824 159.209C46.5147 157.612 46.4163 156.315 46.3938 155.885L46.1832 155.789Z" fill="#BD7A43"/>
<path d="M54.2648 145.02C54.2648 145.02 55.6203 144.204 57.4284 143.322C59.429 142.343 64.0758 141.622 65.3014 141.885C62.7226 140.513 60.4598 141.363 57.3006 142.603C54.137 143.844 52.7793 144.694 52.7793 144.694L54.2648 145.02Z" fill="#EBD9B3"/>
<path d="M54.265 145.265C54.2491 145.265 54.2313 145.263 54.2134 145.259L52.7301 144.932C52.6317 144.912 52.5599 144.832 52.542 144.735C52.5241 144.637 52.5688 144.535 52.6539 144.486C52.7079 144.451 54.0656 143.61 57.2113 142.374C59.0976 141.635 60.8766 140.935 62.5592 140.935C63.5405 140.935 64.4637 141.17 65.38 141.646C65.4807 141.676 65.5569 141.771 65.5569 141.885C65.5569 142.021 65.4495 142.129 65.3174 142.129H65.3015L65.2522 142.125C65.1022 142.093 64.878 142.075 64.6004 142.075C62.7675 142.075 59.1469 142.751 57.5339 143.542C55.7592 144.411 54.4038 145.223 54.3882 145.232C54.3524 145.256 54.3074 145.265 54.265 145.265ZM53.4606 144.592L54.2246 144.76C54.5472 144.569 55.7794 143.855 57.3232 143.102C58.8579 142.347 61.9565 141.73 63.9461 141.606C63.4934 141.486 63.0364 141.427 62.5592 141.427C60.9707 141.427 59.3082 142.077 57.3882 142.832C55.3963 143.612 54.1216 144.238 53.4606 144.592Z" fill="#BD7A43"/>
<path d="M62.6552 141.948C62.6552 141.948 66.2715 146.59 71.7584 146.327C68.1445 146.98 65.1085 145.476 61.8174 142.079C62.4625 141.948 62.6552 141.948 62.6552 141.948Z" fill="#EBD9B3"/>
<path d="M70.1385 146.721C67.2617 146.721 64.6403 145.343 61.647 142.252C61.5797 142.188 61.5598 142.093 61.5843 142.009C61.6112 141.921 61.683 141.857 61.7681 141.839C62.4201 141.708 62.6328 141.705 62.6553 141.705C62.7314 141.705 62.7987 141.74 62.8457 141.798C62.8794 141.839 66.453 146.365 71.7472 146.082C71.8592 146.073 71.9847 146.17 71.9982 146.299C72.0138 146.429 71.9287 146.544 71.8009 146.569C71.2386 146.671 70.6786 146.721 70.1385 146.721ZM62.3148 142.238C63.9323 143.855 65.4357 144.948 66.9345 145.578C64.4969 144.431 62.9265 142.66 62.5477 142.204C62.4963 142.209 62.4201 142.22 62.3148 142.238Z" fill="#BD7A43"/>
<path d="M51.0004 144.324C44.969 143.157 39.6456 138.399 39.6456 131.13C39.6456 126.628 40.1565 122.513 40.0086 116.343C38.8323 116.649 37.5351 116.778 36.5089 116.359C36.594 119.064 36.5784 121.665 36.4506 124.091C35.9668 133.409 34.3938 139.338 26.3416 141.542C21.325 142.787 19.5976 141.681 16.8643 141.442C14.1265 141.209 10.6089 142.329 9.22412 144.683C9.22412 144.683 11.6237 141.449 16.8553 142.259C22.0846 143.068 26.2565 144.952 32.1085 140.821C29.2698 145.223 24.213 147.825 22.0846 151.506C19.9562 155.186 18.5356 159.313 19.0711 163.263C19.5171 158.057 21.2869 151.862 24.9233 148.81C28.5597 145.76 34.06 141.449 36.0115 137.231C35.0346 145.939 37.8733 151.145 40.4433 156.978C43.0154 162.812 45.1438 167.748 44.969 172.238C45.2333 165.503 44.5232 163.8 42.482 159.313C40.4433 154.826 37.9607 148.63 38.4044 142.975C38.7584 139.297 39.2916 136.875 39.9122 138.399C40.5328 139.925 42.0429 143.336 50.7338 145.311C59.4247 147.286 61.5531 150.247 62.4403 153.12C62.0865 148.275 57.0295 145.492 51.0004 144.324Z" fill="#EBD9B3"/>
<path d="M44.9691 172.481H44.9578C44.8257 172.476 44.7227 172.363 44.725 172.227C44.9064 167.701 42.6301 162.542 40.2238 157.079C39.9841 156.54 39.7464 156.007 39.5112 155.478C37.2484 150.451 35.1108 145.692 35.6532 138.42C33.556 141.943 29.3148 145.474 26.1354 148.118L25.078 149C20.5319 152.814 19.5172 160.898 19.3109 163.284C19.302 163.408 19.2013 163.503 19.0758 163.508C18.9503 163.519 18.8493 163.42 18.8314 163.295C18.3476 159.716 19.3738 155.705 21.8764 151.381C22.9473 149.528 24.7194 147.966 26.6016 146.311C28.2012 144.903 29.8457 143.454 31.172 141.73C29.0168 143.03 26.8928 143.642 24.5694 143.642C22.8241 143.642 21.1482 143.313 19.3738 142.966C18.5492 142.803 17.6932 142.635 16.815 142.501C16.2729 142.417 15.7328 142.374 15.2131 142.374C11.2989 142.374 9.43939 144.805 9.4215 144.83C9.34074 144.932 9.19735 144.959 9.08975 144.887C8.98674 144.814 8.9553 144.669 9.01817 144.558C10.3849 142.227 13.665 141.168 16.1295 141.168C16.3848 141.168 16.6404 141.179 16.8822 141.2C17.6171 141.263 18.2849 141.388 18.9347 141.513C19.8934 141.692 20.8839 141.878 22.1274 141.878C23.3709 141.878 24.7284 141.692 26.2857 141.304C33.9839 139.195 35.7135 133.624 36.2089 124.082C36.3341 121.706 36.35 119.109 36.2669 116.368C36.2626 116.286 36.3029 116.205 36.3702 116.157C36.4374 116.111 36.5225 116.098 36.5987 116.132C37.4299 116.47 38.5793 116.461 39.946 116.105C40.0176 116.087 40.0938 116.102 40.152 116.148C40.2126 116.191 40.2484 116.261 40.2484 116.336C40.3358 119.982 40.1991 122.846 40.0646 125.619C39.9728 127.504 39.8898 129.286 39.8898 131.13C39.8898 138.585 45.4912 143.009 51.0454 144.084C55.2015 144.889 62.2433 147.132 62.6824 153.102C62.6913 153.227 62.6062 153.336 62.4853 153.361C62.3642 153.39 62.2479 153.313 62.2098 153.191C61.3829 150.522 59.3688 147.524 50.6779 145.549C41.7339 143.517 40.3 139.996 39.6904 138.492C39.6211 138.329 39.5695 138.247 39.5381 138.207C39.4126 138.361 39.0184 139.141 38.6465 143.002C38.2164 148.501 40.5912 154.553 42.7016 159.209C44.669 163.533 45.4821 165.324 45.2088 172.238V172.247C45.2045 172.379 45.0992 172.481 44.9691 172.481ZM36.0116 136.987C36.0318 136.987 36.0563 136.991 36.0765 136.996C36.1908 137.03 36.2626 137.141 36.2513 137.259C35.3754 145.093 37.5935 150.039 39.9481 155.272C40.1878 155.807 40.4299 156.338 40.665 156.878C42.3297 160.655 43.9339 164.288 44.7181 167.694C44.5031 164.342 43.7143 162.61 42.2625 159.415C40.1252 154.705 37.721 148.576 38.1647 142.957C38.6688 137.69 39.2357 137.69 39.5381 137.69C39.8496 137.69 40.0288 138.043 40.1364 138.309C40.7212 139.739 42.0833 143.095 50.7855 145.073C57.1709 146.522 60.0589 148.54 61.5038 150.603C59.595 146.817 54.3074 145.213 50.9534 144.565C45.2045 143.452 39.4036 138.864 39.4036 131.13C39.4036 129.275 39.491 127.488 39.583 125.597C39.7106 122.91 39.8451 120.134 39.7712 116.653C38.6016 116.923 37.5799 116.939 36.7623 116.706C36.8361 119.332 36.8136 121.821 36.6927 124.105C36.1864 133.878 34.3939 139.59 26.4089 141.778C24.8048 142.177 23.4066 142.368 22.1274 142.368C20.8389 142.368 19.8262 142.177 18.8493 141.993C18.1817 141.869 17.5499 141.751 16.8418 141.69C15.8113 141.597 14.6283 141.708 13.4544 142.046C14.4446 141.857 15.6523 141.826 16.8912 142.016C17.7763 142.152 18.6343 142.32 19.4679 142.485C21.2177 142.826 22.8689 143.15 24.5694 143.15C27.1706 143.15 29.5232 142.347 31.9698 140.624C32.0638 140.556 32.1939 140.565 32.2744 140.647C32.3596 140.728 32.3754 140.857 32.3102 140.957C30.8561 143.213 28.8532 144.975 26.9196 146.678C26.2027 147.313 25.497 147.932 24.8449 148.558L25.8285 147.739C29.2947 144.855 34.0445 140.905 35.792 137.129C35.8324 137.039 35.9198 136.987 36.0116 136.987ZM20.6485 154.93C19.9517 156.61 19.5082 158.231 19.3109 159.782C19.5888 158.32 20.0146 156.617 20.6485 154.93Z" fill="#BD7A43"/>
<g style="mix-blend-mode:multiply" opacity="0.4">
<path d="M32.1085 140.821C31.6806 141.485 31.199 142.102 30.6881 142.694C30.8001 142.578 30.9166 142.472 31.0242 142.354C32.0548 141.25 33.0228 140.093 33.9818 138.928C33.9324 138.971 33.8785 139.016 33.8248 139.059C33.6725 139.179 33.5133 139.297 33.3499 139.411C33.0317 139.637 32.7002 139.851 32.3641 140.05C31.5216 140.544 30.6388 140.964 29.7291 141.318C27.5961 142.15 24.7283 142.798 22.3849 142.118C20.1129 142.164 18.7194 141.603 16.8643 141.442C14.1265 141.209 10.6089 142.329 9.22412 144.683C9.22412 144.683 11.6237 141.449 16.8553 142.259C22.0846 143.068 26.2565 144.952 32.1085 140.821Z" fill="#CB9049"/>
</g>
<g style="mix-blend-mode:multiply" opacity="0.4">
<path d="M51.0003 144.324C44.9689 143.157 39.6455 138.399 39.6455 131.13C39.6455 126.628 40.1565 122.513 40.0085 116.343C39.5469 116.463 39.0766 116.54 38.6014 116.583C38.5342 120.676 38.3192 124.762 38.2474 128.853C38.2229 130.452 38.3596 132.048 38.355 133.647C38.3504 135.093 38.196 136.533 37.9563 137.959C37.7209 139.368 37.4231 140.771 37.2797 142.195C37.1271 143.649 37.1675 145.07 37.3602 146.515C37.5977 148.245 38.0145 149.987 38.151 151.737C38.8659 153.504 39.6657 155.213 40.4432 156.978C43.0153 162.812 45.1437 167.748 44.9689 172.238C45.2332 165.503 44.5231 163.8 42.4819 159.313C40.4432 154.826 37.9606 148.63 38.4043 142.975C38.7583 139.297 39.2915 136.875 39.9121 138.399C40.5327 139.925 42.0428 143.336 50.7337 145.311C59.4246 147.286 61.553 150.247 62.4402 153.12C62.0864 148.275 57.0294 145.492 51.0003 144.324Z" fill="#CB9049"/>
</g>
<g style="mix-blend-mode:screen">
<path d="M37.4702 118.415C37.4633 118.327 37.3334 118.447 37.3334 118.501C37.1586 121.685 36.8966 124.837 36.5403 128.007C36.2983 130.166 36.1191 132.261 35.2028 134.266C34.5149 135.78 33.3341 137.05 32.3058 138.331C32.1489 138.529 32.2945 138.771 32.5029 138.56C34.5014 136.513 35.9913 134.198 36.5493 131.354C37.3649 127.193 37.6537 122.651 37.4702 118.415Z" fill="#EBD9B3"/>
</g>
<path d="M34.9963 90.452C34.9874 90.4269 34.9539 90.4632 34.9562 90.4815C35.9487 95.3226 36.2398 100.445 36.4773 105.379C36.4862 105.545 36.7283 105.307 36.7283 105.191C36.6656 100.425 36.3832 95.0393 34.9963 90.452Z" fill="#346227"/>
<g style="mix-blend-mode:screen" opacity="0.4">
<path d="M66.8159 54.7993C65.5724 55.6359 64.1295 55.3547 62.7672 55.246C60.9524 55.1009 59.1376 55.0168 57.3183 54.8378C55.0151 54.6109 52.694 54.5476 50.3862 54.7651C46.0083 55.178 42.231 57.6541 40.2636 62.4158C40.0285 62.9828 40.5415 62.899 40.7298 62.5089C43.8083 56.0599 50.0457 55.2618 54.9456 55.4274C57.4796 55.5158 60.0024 55.7471 62.5387 55.79C64.0488 55.8151 65.5276 56.0373 66.8182 54.9511C66.8583 54.9193 66.9033 54.7426 66.8159 54.7993Z" fill="#86B133"/>
</g>
<g style="mix-blend-mode:screen" opacity="0.4">
<path d="M60.8138 21.9854C53.2631 21.8198 43.8846 20.2599 38.4513 26.8992C38.2632 27.1283 38.4468 27.4276 38.6776 27.1646C41.6977 23.7814 45.4238 22.8585 49.7591 22.3732C53.4425 21.9606 57.0585 22.4277 60.7241 22.2099C60.8002 22.2076 60.9145 21.9877 60.8138 21.9854Z" fill="#86B133"/>
</g>
<g style="mix-blend-mode:screen" opacity="0.4">
<path d="M26.6148 70.5407C22.9584 65.3229 17.2718 64.0078 11.3526 65.1959C11.3166 65.205 11.2586 65.3092 11.3212 65.3025C14.1734 65.0712 16.6804 65.1144 19.4498 65.9034C23.4333 67.0396 23.9532 68.5656 26.2855 70.9396C26.4177 71.0735 26.7134 70.6788 26.6148 70.5407Z" fill="#86B133"/>
</g>
<g style="mix-blend-mode:screen" opacity="0.4">
<path d="M23.0254 26.8063C19.696 21.3687 14.1014 19.6952 8.126 20.507C8.08562 20.5137 8.02299 20.6112 8.08562 20.6112C10.9468 20.5636 13.445 20.7633 16.1582 21.7269C20.1305 23.1352 20.4262 24.5955 22.6714 27.1873C22.7969 27.3278 23.1149 26.9514 23.0254 26.8063Z" fill="#86B133"/>
</g>
<g style="mix-blend-mode:screen" opacity="0.5">
<path d="M42.6564 6.49806C41.0165 7.46865 39.0627 8.06493 37.3555 8.94705C35.9909 9.64782 34.9716 10.7429 34.1023 11.9923C33.9162 12.2531 34.147 12.4186 34.3397 12.1646C35.7445 10.3189 37.3778 9.21918 39.4502 8.25556C40.501 7.76563 41.8007 7.38482 42.67 6.60696C42.7012 6.57747 42.7283 6.4551 42.6564 6.49806Z" fill="#A2C629"/>
</g>
<g style="mix-blend-mode:multiply" opacity="0.4">
<path d="M31.8554 85.0597C34.4388 92.2388 35.1018 93.6447 35.9644 102.164C36.1638 106.121 36.8271 104.377 36.4304 100.15C36.1817 97.5426 35.429 93.495 34.5934 89.758C33.036 84.6062 28.7747 75.3682 17.7202 70.7264C22.1631 73.2457 28.9137 78.0257 31.8554 85.0597Z" fill="#3D742E"/>
</g>
<g style="mix-blend-mode:multiply" opacity="0.4">
<path d="M9.29363 68.407C9.1055 68.3729 8.99561 68.3547 8.99561 68.3547C9.09862 68.3706 9.19291 68.3911 9.29363 68.407Z" fill="#3D742E"/>
<path d="M9.29361 68.6517L9.25782 68.6494L9.11443 68.6245L9.10319 68.6222L8.9598 68.5974C8.82994 68.5769 8.74024 68.4522 8.75813 68.3183C8.77603 68.1892 8.89487 68.1007 9.02931 68.1121L9.16582 68.1325L9.33629 68.1641C9.46614 68.1892 9.55126 68.3138 9.53566 68.4476C9.51317 68.5656 9.41246 68.6517 9.29361 68.6517Z" fill="#346227"/>
</g>
<g style="mix-blend-mode:multiply" opacity="0.4">
<path d="M26.514 39.6974C29.5856 48.0556 30.074 47.9218 29.4601 43.652C28.9067 41.9989 22.8732 25.2441 5.36133 24.1056C10.7207 25.117 21.7954 28.5183 26.514 39.6974Z" fill="#3D742E"/>
</g>
<path d="M9.29363 68.4071C9.1055 68.373 8.99561 68.3547 8.99561 68.3547C9.09862 68.3706 9.19291 68.3912 9.29363 68.4071Z" fill="#3D742E"/>
<path d="M9.29361 68.6517L9.25782 68.6494L9.11443 68.6245L9.10319 68.6222L8.9598 68.5974C8.82994 68.5769 8.74024 68.4522 8.75813 68.3183C8.77603 68.1892 8.89487 68.1007 9.02931 68.1121L9.16582 68.1325L9.33629 68.1641C9.46614 68.1892 9.55126 68.3138 9.53566 68.4476C9.51317 68.5656 9.41246 68.6517 9.29361 68.6517Z" fill="#346227"/>
<g style="mix-blend-mode:screen">
<path d="M32.1353 20.6273C30.1904 25.795 30.186 31.6111 30.3092 37.0647C30.3136 37.2303 30.569 37.0148 30.5713 36.9059C30.6924 31.3302 30.7057 26.0468 32.1912 20.6159C32.2068 20.5616 32.1442 20.6001 32.1353 20.6273Z" fill="#3D742E"/>
</g>
<g style="mix-blend-mode:screen">
<path d="M24.5085 36.9106C23.2024 34.4321 21.1614 32.7496 19.1404 30.8925C19.1269 30.8788 19.1 30.915 19.1136 30.931C20.9956 32.9128 22.9358 34.7086 24.3025 37.1237C25.6424 39.4796 26.72 42.0533 27.6677 44.5884C27.6946 44.6611 27.8247 44.525 27.8065 44.466C27.0786 41.8266 25.7791 39.321 24.5085 36.9106Z" fill="#3D742E"/>
</g>
<g style="mix-blend-mode:screen">
<path d="M30.5176 54.7993C30.5086 54.7403 30.4302 54.8197 30.4348 54.8583C30.7775 57.8898 31.369 60.8898 31.7363 63.9216C32.1038 66.9307 32.4042 69.9783 33.0046 72.9488C33.0404 73.1392 33.2914 72.8694 33.2778 72.7491C32.637 66.7061 31.5011 60.7742 30.5176 54.7993Z" fill="#3D742E"/>
</g>
<g style="mix-blend-mode:screen">
<path d="M47.7651 63.6314C46.0736 64.8785 44.3393 66.0327 42.8405 67.5246C41.4155 68.951 40.1876 70.6291 39.0451 72.2888C38.9239 72.4567 39.0719 72.5586 39.1951 72.4001C40.4251 70.8128 41.5701 69.1778 42.9412 67.7062C44.3774 66.1597 46.1968 65.0622 47.7741 63.679C47.792 63.6632 47.8009 63.6042 47.7651 63.6314Z" fill="#3D742E"/>
</g>
</g>
<defs>
<clipPath id="clip0_129_2849">
<rect width="72" height="172" fill="white"/>
</clipPath>
</defs>
</svg>
