<svg width="50" height="88" viewBox="0 0 50 88" fill="none" xmlns="http://www.w3.org/2000/svg">
<path d="M14.2485 49.7445C14.2485 49.7445 15.0952 48.8055 18.3261 50.0844C20.5349 50.7282 22.0504 50.4176 23.3126 48.7987C24.5748 47.1823 24.748 46.1404 24.2904 44.524C23.828 42.9051 23.7304 41.6933 23.468 32.6673C23.2105 23.6392 23.717 18.9417 20.8992 16.9563C18.0861 14.9754 11.6685 14.687 6.84424 13.7167C2.01997 12.7464 -1.90229 7.50328 1.3776 3.17046C4.65749 -1.16488 11.5352 -0.205818 15.8506 2.30962C20.1661 4.82254 21.3905 8.66153 22.0261 11.2685C21.8882 8.02208 22.4327 5.92035 22.9793 5.92035C23.5258 5.92035 23.8881 10.2623 25.1125 11.9504C27.657 7.06279 34.1101 -1.70382 46.172 0.896561C49.9029 2.39891 51.2807 5.28777 47.8941 9.44842C44.5031 13.6093 40.5433 14.5931 34.8589 14.8211C29.1702 15.0537 26.5859 16.2097 26.357 17.3654C26.1281 18.5193 25.5792 25.2826 25.7526 31.2611C25.9258 37.2419 25.8992 41.4609 27.388 45.7937C28.1724 47.9939 28.6368 48.526 30.3102 48.526C31.9791 48.526 33.819 48.8747 34.6901 49.7289C35.5611 50.5851 36.7232 53.7087 36.7478 55.1888C36.1878 53.257 35.6078 50.9853 33.8411 50.1112C32.079 49.2348 31.7879 49.1007 30.3835 49.0336C28.9747 48.9665 28.5524 49.0336 27.837 47.7077C27.8591 50.5382 28.757 52.7563 29.6858 54.6945C30.5303 56.4542 30.6367 56.6978 30.8101 57.5408C30.9524 57.9968 34.2234 58.52 34.921 61.782C34.1902 60.2751 32.4478 58.5894 31.159 58.3458C31.5413 60.8699 31.019 61.6389 31.019 61.6389C31.019 61.6389 30.9835 58.2764 29.4524 56.1747C27.9214 54.0686 27.5348 52.8455 27.5348 52.8455C27.5348 52.8455 27.2235 54.7014 26.1436 56.3825C25.0636 58.0662 24.8902 58.4509 25.6548 60.2394C26.4214 62.0259 26.9081 62.7615 26.9436 64.3735C26.4569 62.8329 26.0371 60.975 24.8547 59.6425C24.3305 59.2579 23.1481 61.0107 23.1836 61.9231C23.2193 62.8329 23.4969 64.6887 24.0904 65.6702C22.8325 64.7245 22.0327 63.3606 22.5214 61.0107C23.0104 58.661 23.1836 58.5223 24.0549 56.8746C24.9237 55.2268 26.4924 53.0557 25.1326 47.4483C24.1571 49.6552 21.8261 51.0927 19.6682 51.1261C18.7928 51.3386 18.8638 51.759 19.0038 52.4229C19.1417 53.0914 19.2816 54.7034 18.5482 55.8953C19.0372 54.176 18.8973 51.7947 18.3751 51.7947C17.8549 51.7947 15.3129 53.0914 14.2994 55.1932C15.1707 52.7405 16.8416 51.759 19.0038 50.9854C19.8016 50.7058 18.6549 50.252 17.4373 50.0755C16.2149 49.9011 15.7639 49.2728 14.2485 49.7445Z" fill="#EBD9B3"/>
<path d="M24.0905 65.8447C24.0505 65.8447 24.015 65.8335 23.9838 65.811C22.4328 64.6372 21.9129 63.1012 22.3527 60.975C22.7882 58.8712 22.9839 58.5067 23.6283 57.3015L23.8994 56.7919C23.9704 56.6621 24.0416 56.5302 24.1171 56.3938C24.9704 54.8376 26.1282 52.7272 25.0726 47.9582C24.0061 49.91 21.8505 51.2672 19.6683 51.3029C18.9795 51.4705 19.035 51.7388 19.1727 52.3872C19.2173 52.6042 19.5884 54.5336 18.6951 55.9869C18.6528 56.0606 18.5572 56.0874 18.4816 56.0517C18.4018 56.0183 18.3617 55.9311 18.384 55.8461C18.7795 54.4576 18.7461 52.5616 18.4461 52.0474C18.4018 51.9758 18.3752 51.9668 18.3752 51.9668C17.9085 51.9668 15.4284 53.2457 14.4552 55.2669C14.4151 55.3518 14.3175 55.3878 14.2331 55.3518C14.1507 55.3161 14.1063 55.22 14.1396 55.135C15.0152 52.669 16.6952 51.6271 18.944 50.8244C19.015 50.7999 19.0594 50.7752 19.0817 50.7619C18.955 50.6344 18.3617 50.3839 17.4106 50.2477C16.9973 50.1872 16.6597 50.0755 16.3641 49.9771C15.9929 49.8541 15.673 49.7467 15.2573 49.7467C14.9685 49.7467 14.6552 49.7983 14.2995 49.91C14.224 49.9345 14.1441 49.9033 14.1041 49.8363C14.0597 49.7712 14.0686 49.6863 14.1218 49.6281C14.1553 49.5881 14.4995 49.2392 15.4707 49.2392C16.2596 49.2392 17.2417 49.4718 18.3906 49.9256C20.584 50.5584 21.9861 50.2186 23.1771 48.6915C24.3704 47.1688 24.5882 46.2075 24.126 44.5709C23.6461 42.8918 23.5528 41.5548 23.2993 32.6742C23.2549 31.118 23.2326 29.6914 23.2106 28.3858C23.1127 22.1346 23.0615 18.6915 20.8017 17.0994C18.8416 15.72 15.0197 15.1611 11.322 14.6222C9.79747 14.4008 8.2242 14.1727 6.81089 13.8865C3.91988 13.3053 1.33993 11.2124 0.386732 8.68167C-0.339831 6.74775 -0.0355982 4.7534 1.24004 3.06537C3.15782 0.529783 6.06658 0 8.1664 0C10.7441 0 13.5775 0.786891 15.9351 2.15966C19.5129 4.24353 21.0261 7.24846 21.8371 9.91134C21.8728 7.96163 22.1704 6.40113 22.6328 5.91805C22.7416 5.80403 22.8572 5.74611 22.9794 5.74611C23.346 5.74611 23.5082 6.35854 23.8639 7.86776C24.1638 9.12651 24.5326 10.6671 25.0972 11.6129C30.3524 1.73496 37.8722 0.252529 41.9121 0.252529C43.2988 0.252529 44.741 0.411418 46.2076 0.724388C48.2541 1.54493 49.5141 2.7366 49.8829 4.17874C50.2807 5.74382 49.6586 7.55479 48.0275 9.55808C44.5722 13.7993 40.5832 14.763 34.8636 14.9956C29.0147 15.2325 26.7171 16.4377 26.526 17.3991C26.3105 18.4923 25.7482 25.1505 25.9259 31.2565L25.9705 32.8642C26.1082 38.0691 26.206 41.8298 27.5527 45.7379C28.3325 47.9358 28.7725 48.3538 30.3103 48.3538C32.328 48.3538 34.0103 48.8234 34.8101 49.6059C35.6946 50.4711 36.8944 53.6528 36.9167 55.1865C36.9213 55.2738 36.8567 55.3475 36.77 55.361C36.6835 55.3743 36.6057 55.323 36.5811 55.2378L36.5035 54.9718C35.979 53.1429 35.3835 51.0682 33.7679 50.2655C32.0324 49.4047 31.7657 49.2728 30.3747 49.2057L30.1258 49.1922C29.1082 49.1519 28.5903 49.1274 28.0303 48.3515C28.1725 50.8178 28.9769 52.8165 29.8413 54.6164C30.6858 56.3716 30.7991 56.6287 30.9791 57.5051C31.0148 57.5474 31.3036 57.6905 31.5591 57.8157C32.6102 58.3256 34.5612 59.2714 35.0902 61.744C35.108 61.8313 35.059 61.9162 34.9789 61.9453C34.8945 61.9743 34.8058 61.9363 34.768 61.858C34.0747 60.4317 32.5169 58.9493 31.3657 58.5781C31.6813 60.937 31.1837 61.706 31.1636 61.7397C31.119 61.8022 31.0414 61.829 30.9702 61.8068C30.8992 61.7843 30.8503 61.7172 30.8457 61.6412C30.8457 61.6099 30.7948 58.3078 29.3125 56.2754C28.3504 54.9539 27.8371 53.9791 27.5859 53.4245C27.4104 54.1089 27.0259 55.325 26.2904 56.4766C25.2305 58.1244 25.0772 58.4463 25.8126 60.17C25.9571 60.5011 26.0882 60.7985 26.2103 61.0689C26.7392 62.2472 27.086 63.0252 27.1171 64.3712C27.1215 64.4561 27.0571 64.5321 26.9749 64.5456C26.8905 64.5612 26.8058 64.5076 26.7815 64.4271C26.7082 64.1924 26.6347 63.9531 26.5615 63.7093C26.1594 62.3725 25.7059 60.861 24.726 59.7588L24.686 59.7609C24.575 59.7609 24.4016 59.8749 24.2238 60.0629C23.7417 60.5659 23.335 61.4288 23.3548 61.9141C23.3926 62.891 23.6905 64.6798 24.235 65.583C24.2771 65.6524 24.2682 65.744 24.2038 65.7975C24.1726 65.8312 24.1305 65.8447 24.0905 65.8447ZM25.1327 47.2739L25.1481 47.2762C25.2237 47.2808 25.2838 47.3343 25.3015 47.4058C26.5703 52.6399 25.3261 54.9047 24.4193 56.5616C24.346 56.6957 24.2728 56.8299 24.2061 56.9549L23.9305 57.4671C23.2904 58.6677 23.117 58.9873 22.6904 61.0467C22.3438 62.7145 22.6283 63.9911 23.5883 65.0017C23.2194 63.9799 23.0372 62.6697 23.0106 61.9274C22.9839 61.2767 23.4905 60.3266 23.9749 59.8236C24.3526 59.4255 24.7103 59.3183 24.957 59.5038C25.1127 59.6805 25.2594 59.866 25.3925 60.0606C24.7172 58.3927 24.9704 57.8918 25.9971 56.291C27.0459 54.6588 27.3658 52.8343 27.3704 52.8142C27.3815 52.7382 27.4482 52.6757 27.5238 52.6711C27.6016 52.6667 27.6771 52.716 27.7015 52.792C27.7058 52.8052 28.0992 54.0239 29.5904 56.0719C30.5948 57.4469 30.9702 59.3183 31.1081 60.5031C31.1436 60.0136 31.1325 59.3183 30.988 58.3703C30.9791 58.3167 31.0014 58.2608 31.0369 58.2228C31.0792 58.1825 31.1347 58.1647 31.1903 58.1757C32.1435 58.3568 33.2657 59.2423 34.1079 60.2483C33.3301 59.0589 32.1391 58.482 31.4103 58.1267C30.957 57.9053 30.7035 57.7844 30.6457 57.5923C30.468 56.7404 30.357 56.4876 29.5303 54.7685C28.5748 52.7762 27.686 50.5449 27.666 47.7077C27.6637 47.6294 27.7169 47.5601 27.7925 47.5399C27.868 47.5198 27.9504 47.5534 27.9882 47.6249C28.6103 48.7808 28.9348 48.7943 30.1392 48.8479L30.3925 48.8591C31.8547 48.9308 32.1703 49.0871 33.9213 49.9569C34.6501 50.3191 35.1835 50.905 35.5967 51.6026C35.2634 50.8267 34.8902 50.1648 34.5703 49.8541C33.7035 49.0022 31.7992 48.6982 30.3103 48.6982C28.5104 48.6982 28.0103 48.0587 27.2282 45.8542C25.8638 41.8923 25.7659 38.1094 25.626 32.8754L25.5794 31.2655C25.406 25.1349 25.9705 18.4341 26.1883 17.3297C26.4793 15.8585 29.7169 14.8568 34.8502 14.6489C40.4722 14.4209 44.3876 13.4797 47.7608 9.33669C49.3163 7.42727 49.9207 5.7191 49.5475 4.26803C49.2076 2.93785 48.0186 1.82654 46.1077 1.05751C44.6944 0.755754 43.2722 0.596865 41.9121 0.596865C37.9168 0.596865 30.4414 2.08365 25.266 12.033C25.2394 12.0868 25.1882 12.1225 25.1281 12.1248C25.066 12.1292 25.0105 12.1024 24.975 12.0554C24.2794 11.0941 23.8639 9.35225 23.5305 7.95041C23.3439 7.16581 23.1127 6.18867 22.9528 6.08816L22.8815 6.15524C22.4638 6.59344 22.086 8.53194 22.1973 11.2596C22.2016 11.3489 22.1395 11.4249 22.0505 11.4384C21.9661 11.4496 21.8794 11.3938 21.8594 11.3086C21.1572 8.43349 19.8328 4.82941 15.764 2.46164C13.4553 1.11566 10.6865 0.344336 8.1664 0.344336C6.1444 0.344336 3.34669 0.851912 1.51333 3.27325C-0.0244485 5.31226 0.22449 7.27296 0.708942 8.55872C1.62005 10.9844 4.09987 12.9877 6.87756 13.5468C8.282 13.8284 9.85095 14.0587 11.3707 14.2801C15.1085 14.8234 18.9729 15.3891 20.9995 16.8155C23.4015 18.5081 23.4572 22.0137 23.5548 28.3791C23.5749 29.6848 23.5972 31.1091 23.6438 32.6607C23.9082 41.8879 24.0061 42.9051 24.4548 44.4748C24.9504 46.2187 24.706 47.2963 23.4461 48.906C22.3573 50.3035 21.0862 50.7887 19.2817 50.4867C19.3707 50.565 19.4305 50.6499 19.4417 50.7417C19.4571 50.9183 19.3306 51.057 19.0594 51.1509C17.6729 51.6449 16.5484 52.2061 15.6996 53.1317C16.7707 52.177 17.9574 51.6204 18.3752 51.6204C18.4616 51.6204 18.584 51.6516 18.6951 51.7993C18.7128 51.8237 18.7306 51.8505 18.7461 51.8776C18.7351 51.4751 18.9017 51.133 19.6239 50.9586C21.8416 50.9183 24.0771 49.4136 24.9793 47.3767C25.0016 47.3142 25.066 47.2739 25.1327 47.2739Z" fill="#BD7A43"/>
<path d="M14.2485 49.7445C14.2485 49.7445 15.0952 48.8055 18.3261 50.0844C20.5349 50.7282 22.0504 50.4176 23.3126 48.7987C24.5748 47.1823 24.748 46.1404 24.2904 44.524C23.828 42.9051 23.7304 41.6933 23.468 32.6673C23.2105 23.6392 23.717 18.9417 20.8992 16.9563C18.0861 14.9754 11.6685 14.687 6.84424 13.7167C2.01997 12.7464 -1.90229 7.50328 1.3776 3.17046C4.65749 -1.16488 11.5352 -0.205818 15.8506 2.30962C20.1661 4.82254 21.3905 8.66153 22.0261 11.2685C21.8882 8.02208 22.4327 5.92035 22.9793 5.92035C23.5258 5.92035 23.8881 10.2623 25.1125 11.9504C27.657 7.06279 34.1101 -1.70382 46.172 0.896561C49.9029 2.39891 51.2807 5.28777 47.8941 9.44842C44.5031 13.6093 40.5433 14.5931 34.8589 14.8211C29.1702 15.0537 26.5859 16.2097 26.357 17.3654C26.1281 18.5193 25.5792 25.2826 25.7526 31.2611C25.9258 37.2419 25.8992 41.4609 27.388 45.7937C28.1724 47.9939 28.6368 48.526 30.3102 48.526C31.9791 48.526 33.819 48.8747 34.6901 49.7289C35.5611 50.5851 36.7232 53.7087 36.7478 55.1888C36.1878 53.257 35.6078 50.9853 33.8411 50.1112C32.079 49.2348 31.7879 49.1007 30.3835 49.0336C28.9747 48.9665 28.5524 49.0336 27.837 47.7077C27.8591 50.5382 28.757 52.7563 29.6858 54.6945C30.5303 56.4542 30.6367 56.6978 30.8101 57.5408C30.9524 57.9968 34.2234 58.52 34.921 61.782C34.1902 60.2751 32.4478 58.5894 31.159 58.3458C31.5413 60.8699 31.019 61.6389 31.019 61.6389C31.019 61.6389 30.9835 58.2764 29.4524 56.1747C27.9214 54.0686 27.5348 52.8455 27.5348 52.8455C27.5348 52.8455 27.2235 54.7014 26.1436 56.3825C25.0636 58.0662 24.8902 58.4509 25.6548 60.2394C26.4214 62.0259 26.9081 62.7615 26.9436 64.3735C26.4569 62.8329 26.0371 60.975 24.8547 59.6425C24.3305 59.2579 23.1481 61.0107 23.1836 61.9231C23.2193 62.8329 23.4969 64.6887 24.0904 65.6702C22.8325 64.7245 22.0327 63.3606 22.5214 61.0107C23.0104 58.661 23.1836 58.5223 24.0549 56.8746C24.9237 55.2268 26.4924 53.0557 25.1326 47.4483C24.1571 49.6552 21.8261 51.0927 19.6682 51.1261C18.7928 51.3386 18.8638 51.759 19.0038 52.4229C19.1417 53.0914 19.2816 54.7034 18.5482 55.8953C19.0372 54.176 18.8973 51.7947 18.3751 51.7947C17.8549 51.7947 15.3129 53.0914 14.2994 55.1932C15.1707 52.7405 16.8416 51.759 19.0038 50.9854C19.8016 50.7058 18.6549 50.252 17.4373 50.0755C16.2149 49.9011 15.7639 49.2728 14.2485 49.7445Z" fill="#EBD9B3"/>
<path d="M24.0905 65.8447C24.0505 65.8447 24.015 65.8335 23.9838 65.811C22.4328 64.6372 21.9129 63.1012 22.3527 60.975C22.7882 58.8712 22.9839 58.5067 23.6283 57.3015L23.8994 56.7919C23.9704 56.6621 24.0416 56.5302 24.1171 56.3938C24.9704 54.8376 26.1282 52.7272 25.0726 47.9582C24.0061 49.91 21.8505 51.2672 19.6683 51.3029C18.9795 51.4705 19.035 51.7388 19.1727 52.3872C19.2173 52.6042 19.5884 54.5336 18.6951 55.9869C18.6528 56.0606 18.5572 56.0874 18.4816 56.0517C18.4018 56.0183 18.3617 55.9311 18.384 55.8461C18.7795 54.4576 18.7461 52.5616 18.4461 52.0474C18.4018 51.9758 18.3752 51.9668 18.3752 51.9668C17.9085 51.9668 15.4284 53.2457 14.4552 55.2669C14.4151 55.3518 14.3175 55.3878 14.2331 55.3518C14.1507 55.3161 14.1063 55.22 14.1396 55.135C15.0152 52.669 16.6952 51.6271 18.944 50.8244C19.015 50.7999 19.0594 50.7752 19.0817 50.7619C18.955 50.6344 18.3617 50.3839 17.4106 50.2477C16.9973 50.1872 16.6597 50.0755 16.3641 49.9771C15.9929 49.8541 15.673 49.7467 15.2573 49.7467C14.9685 49.7467 14.6552 49.7983 14.2995 49.91C14.224 49.9345 14.1441 49.9033 14.1041 49.8363C14.0597 49.7712 14.0686 49.6863 14.1218 49.6281C14.1553 49.5881 14.4995 49.2392 15.4707 49.2392C16.2596 49.2392 17.2417 49.4718 18.3906 49.9256C20.584 50.5584 21.9861 50.2186 23.1771 48.6915C24.3704 47.1688 24.5882 46.2075 24.126 44.5709C23.6461 42.8918 23.5528 41.5548 23.2993 32.6742C23.2549 31.118 23.2326 29.6914 23.2106 28.3858C23.1127 22.1346 23.0615 18.6915 20.8017 17.0994C18.8416 15.72 15.0197 15.1611 11.322 14.6222C9.79747 14.4008 8.2242 14.1727 6.81089 13.8865C3.91988 13.3053 1.33993 11.2124 0.386732 8.68167C-0.339831 6.74775 -0.0355982 4.7534 1.24004 3.06537C3.15782 0.529783 6.06658 0 8.1664 0C10.7441 0 13.5775 0.786891 15.9351 2.15966C19.5129 4.24353 21.0261 7.24846 21.8371 9.91134C21.8728 7.96163 22.1704 6.40113 22.6328 5.91805C22.7416 5.80403 22.8572 5.74611 22.9794 5.74611C23.346 5.74611 23.5082 6.35854 23.8639 7.86776C24.1638 9.12651 24.5326 10.6671 25.0972 11.6129C30.3524 1.73496 37.8722 0.252529 41.9121 0.252529C43.2988 0.252529 44.741 0.411418 46.2076 0.724388C48.2541 1.54493 49.5141 2.7366 49.8829 4.17874C50.2807 5.74382 49.6586 7.55479 48.0275 9.55808C44.5722 13.7993 40.5832 14.763 34.8636 14.9956C29.0147 15.2325 26.7171 16.4377 26.526 17.3991C26.3105 18.4923 25.7482 25.1505 25.9259 31.2565L25.9705 32.8642C26.1082 38.0691 26.206 41.8298 27.5527 45.7379C28.3325 47.9358 28.7725 48.3538 30.3103 48.3538C32.328 48.3538 34.0103 48.8234 34.8101 49.6059C35.6946 50.4711 36.8944 53.6528 36.9167 55.1865C36.9213 55.2738 36.8567 55.3475 36.77 55.361C36.6835 55.3743 36.6057 55.323 36.5811 55.2378L36.5035 54.9718C35.979 53.1429 35.3835 51.0682 33.7679 50.2655C32.0324 49.4047 31.7657 49.2728 30.3747 49.2057L30.1258 49.1922C29.1082 49.1519 28.5903 49.1274 28.0303 48.3515C28.1725 50.8178 28.9769 52.8165 29.8413 54.6164C30.6858 56.3716 30.7991 56.6287 30.9791 57.5051C31.0148 57.5474 31.3036 57.6905 31.5591 57.8157C32.6102 58.3256 34.5612 59.2714 35.0902 61.744C35.108 61.8313 35.059 61.9162 34.9789 61.9453C34.8945 61.9743 34.8058 61.9363 34.768 61.858C34.0747 60.4317 32.5169 58.9493 31.3657 58.5781C31.6813 60.937 31.1837 61.706 31.1636 61.7397C31.119 61.8022 31.0414 61.829 30.9702 61.8068C30.8992 61.7843 30.8503 61.7172 30.8457 61.6412C30.8457 61.6099 30.7948 58.3078 29.3125 56.2754C28.3504 54.9539 27.8371 53.9791 27.5859 53.4245C27.4104 54.1089 27.0259 55.325 26.2904 56.4766C25.2305 58.1244 25.0772 58.4463 25.8126 60.17C25.9571 60.5011 26.0882 60.7985 26.2103 61.0689C26.7392 62.2472 27.086 63.0252 27.1171 64.3712C27.1215 64.4561 27.0571 64.5321 26.9749 64.5456C26.8905 64.5612 26.8058 64.5076 26.7815 64.4271C26.7082 64.1924 26.6347 63.9531 26.5615 63.7093C26.1594 62.3725 25.7059 60.861 24.726 59.7588L24.686 59.7609C24.575 59.7609 24.4016 59.8749 24.2238 60.0629C23.7417 60.5659 23.335 61.4288 23.3548 61.9141C23.3926 62.891 23.6905 64.6798 24.235 65.583C24.2771 65.6524 24.2682 65.744 24.2038 65.7975C24.1726 65.8312 24.1305 65.8447 24.0905 65.8447ZM25.1327 47.2739L25.1481 47.2762C25.2237 47.2808 25.2838 47.3343 25.3015 47.4058C26.5703 52.6399 25.3261 54.9047 24.4193 56.5616C24.346 56.6957 24.2728 56.8299 24.2061 56.9549L23.9305 57.4671C23.2904 58.6677 23.117 58.9873 22.6904 61.0467C22.3438 62.7145 22.6283 63.9911 23.5883 65.0017C23.2194 63.9799 23.0372 62.6697 23.0106 61.9274C22.9839 61.2767 23.4905 60.3266 23.9749 59.8236C24.3526 59.4255 24.7103 59.3183 24.957 59.5038C25.1127 59.6805 25.2594 59.866 25.3925 60.0606C24.7172 58.3927 24.9704 57.8918 25.9971 56.291C27.0459 54.6588 27.3658 52.8343 27.3704 52.8142C27.3815 52.7382 27.4482 52.6757 27.5238 52.6711C27.6016 52.6667 27.6771 52.716 27.7015 52.792C27.7058 52.8052 28.0992 54.0239 29.5904 56.0719C30.5948 57.4469 30.9702 59.3183 31.1081 60.5031C31.1436 60.0136 31.1325 59.3183 30.988 58.3703C30.9791 58.3167 31.0014 58.2608 31.0369 58.2228C31.0792 58.1825 31.1347 58.1647 31.1903 58.1757C32.1435 58.3568 33.2657 59.2423 34.1079 60.2483C33.3301 59.0589 32.1391 58.482 31.4103 58.1267C30.957 57.9053 30.7035 57.7844 30.6457 57.5923C30.468 56.7404 30.357 56.4876 29.5303 54.7685C28.5748 52.7762 27.686 50.5449 27.666 47.7077C27.6637 47.6294 27.7169 47.5601 27.7925 47.5399C27.868 47.5198 27.9504 47.5534 27.9882 47.6249C28.6103 48.7808 28.9348 48.7943 30.1392 48.8479L30.3925 48.8591C31.8547 48.9308 32.1703 49.0871 33.9213 49.9569C34.6501 50.3191 35.1835 50.905 35.5967 51.6026C35.2634 50.8267 34.8902 50.1648 34.5703 49.8541C33.7035 49.0022 31.7992 48.6982 30.3103 48.6982C28.5104 48.6982 28.0103 48.0587 27.2282 45.8542C25.8638 41.8923 25.7659 38.1094 25.626 32.8754L25.5794 31.2655C25.406 25.1349 25.9705 18.4341 26.1883 17.3297C26.4793 15.8585 29.7169 14.8568 34.8502 14.6489C40.4722 14.4209 44.3876 13.4797 47.7608 9.33669C49.3163 7.42727 49.9207 5.7191 49.5475 4.26803C49.2076 2.93785 48.0186 1.82654 46.1077 1.05751C44.6944 0.755754 43.2722 0.596865 41.9121 0.596865C37.9168 0.596865 30.4414 2.08365 25.266 12.033C25.2394 12.0868 25.1882 12.1225 25.1281 12.1248C25.066 12.1292 25.0105 12.1024 24.975 12.0554C24.2794 11.0941 23.8639 9.35225 23.5305 7.95041C23.3439 7.16581 23.1127 6.18867 22.9528 6.08816L22.8815 6.15524C22.4638 6.59344 22.086 8.53194 22.1973 11.2596C22.2016 11.3489 22.1395 11.4249 22.0505 11.4384C21.9661 11.4496 21.8794 11.3938 21.8594 11.3086C21.1572 8.43349 19.8328 4.82941 15.764 2.46164C13.4553 1.11566 10.6865 0.344336 8.1664 0.344336C6.1444 0.344336 3.34669 0.851912 1.51333 3.27325C-0.0244485 5.31226 0.22449 7.27296 0.708942 8.55872C1.62005 10.9844 4.09987 12.9877 6.87756 13.5468C8.282 13.8284 9.85095 14.0587 11.3707 14.2801C15.1085 14.8234 18.9729 15.3891 20.9995 16.8155C23.4015 18.5081 23.4572 22.0137 23.5548 28.3791C23.5749 29.6848 23.5972 31.1091 23.6438 32.6607C23.9082 41.8879 24.0061 42.9051 24.4548 44.4748C24.9504 46.2187 24.706 47.2963 23.4461 48.906C22.3573 50.3035 21.0862 50.7887 19.2817 50.4867C19.3707 50.565 19.4305 50.6499 19.4417 50.7417C19.4571 50.9183 19.3306 51.057 19.0594 51.1509C17.6729 51.6449 16.5484 52.2061 15.6996 53.1317C16.7707 52.177 17.9574 51.6204 18.3752 51.6204C18.4616 51.6204 18.584 51.6516 18.6951 51.7993C18.7128 51.8237 18.7306 51.8505 18.7461 51.8776C18.7351 51.4751 18.9017 51.133 19.6239 50.9586C21.8416 50.9183 24.0771 49.4136 24.9793 47.3767C25.0016 47.3142 25.066 47.2739 25.1327 47.2739Z" fill="#BD7A43"/>
<g style="mix-blend-mode:multiply">
<path d="M25.6661 43.5693C27.4772 49.3756 27.3061 52.9305 25.495 55.8773C23.904 58.471 22.2483 61.8022 23.7506 64.928C23.3906 63.9263 23.2106 62.6362 23.1838 61.9231C23.1483 61.0107 24.3306 59.2579 24.8549 59.6425C26.0373 60.975 26.4571 62.8329 26.9438 64.3735C26.9083 62.7615 26.4216 62.0259 25.655 60.2394C24.8904 58.4508 25.0638 58.0662 26.1437 56.3825C27.2237 54.7014 27.535 52.8455 27.535 52.8455C27.535 52.8455 27.9216 54.0686 29.4525 56.1747C30.9837 58.2764 31.0192 61.6389 31.0192 61.6389C31.0192 61.6389 31.5414 60.8699 31.1592 58.3458C32.448 58.5894 34.1903 60.2751 34.9212 61.782C34.2236 58.52 30.9525 57.9968 30.8103 57.5408C30.6369 56.6978 30.5304 56.4542 29.686 54.6945C28.7571 52.7562 27.8592 50.5382 27.8372 47.7077C28.5526 49.0336 28.9749 48.9665 30.3837 49.0336C31.7881 49.1006 32.0791 49.2348 33.8413 50.1112C35.608 50.9853 36.188 53.257 36.748 55.1888C36.7234 53.7087 35.5613 50.5851 34.6903 49.7289C33.8192 48.8747 31.9792 48.526 30.3104 48.526C28.637 48.526 28.1726 47.9939 27.3882 45.7937C25.8994 41.4609 25.926 37.2419 25.7528 31.2611C25.7128 29.8883 25.7128 28.4753 25.7371 27.0979L24.8237 27.5295C24.8237 27.5295 24.0305 35.8556 25.6661 43.5693Z" fill="#EBD9B3"/>
</g>
<path d="M46.172 0.896561C34.5522 -2.22467 27.657 7.06279 25.1125 11.9504C23.8881 10.2623 23.5258 5.92035 22.9793 5.92035C22.4327 5.92035 21.8882 8.02208 22.0261 11.2685C21.3905 8.66153 20.1661 4.82254 15.8506 2.30962C11.5352 -0.205818 4.65749 -1.16488 1.3776 3.17046C-1.90229 7.50328 2.01997 12.7464 6.84424 13.7167C11.6685 14.687 18.0861 14.9754 20.8992 16.9563C23.2148 18.5864 23.286 22.0606 23.3816 28.2585C23.9659 28.4931 24.8104 28.6452 25.7215 28.2159C25.757 23.172 26.1659 18.327 26.357 17.3654C26.5859 16.2097 29.1702 15.0537 34.8589 14.8211C40.5433 14.5931 44.5031 13.6093 47.8941 9.44842C51.2807 5.28777 49.9051 2.08594 46.172 0.896561Z" fill="#C4D772"/>
<path d="M24.526 28.663C24.1217 28.663 23.7171 28.5781 23.3171 28.4194C23.2504 28.3926 23.2106 28.3299 23.2106 28.2605C23.117 22.2933 23.0615 18.6915 20.8017 17.0994C18.8416 15.72 15.0197 15.1611 11.322 14.6222C9.79747 14.4008 8.2242 14.1727 6.81089 13.8865C3.91988 13.3053 1.33993 11.2124 0.386732 8.68167C-0.339831 6.74775 -0.0355982 4.7534 1.24004 3.06537C3.15782 0.529783 6.06658 0 8.1664 0C10.7441 0 13.5775 0.786891 15.9351 2.15966C19.5129 4.24353 21.0261 7.24846 21.8371 9.91134C21.8728 7.96163 22.1704 6.40113 22.6328 5.91805C22.7416 5.80403 22.8572 5.74611 22.9794 5.74611C23.346 5.74611 23.5082 6.35854 23.8639 7.86776C24.1638 9.12651 24.5326 10.6692 25.0972 11.6129C26.7214 8.58986 32.1303 0.0961577 41.6033 0.0961577C43.0988 0.0961577 44.6498 0.308621 46.2142 0.728738C48.1297 1.33911 49.4142 2.46828 49.8408 3.90812C50.3253 5.55151 49.6986 7.50557 48.0275 9.55808C44.5722 13.7993 40.5832 14.763 34.8636 14.9956C29.0147 15.2325 26.7171 16.4377 26.526 17.3991C26.3526 18.2688 25.9305 22.9998 25.895 28.2182C25.895 28.283 25.8549 28.3434 25.7971 28.3745C25.3905 28.5648 24.9616 28.663 24.526 28.663ZM23.5528 28.1376C23.8727 28.2562 24.2015 28.3143 24.526 28.3143C24.8749 28.3143 25.2194 28.2427 25.5527 28.1019C25.5905 23.2143 25.9837 18.3604 26.1883 17.3297C26.4793 15.8585 29.7169 14.8568 34.8502 14.6489C40.4722 14.4209 44.3876 13.4797 47.7608 9.33669C49.3564 7.37805 49.9608 5.53594 49.5075 4.00886C49.1209 2.68074 47.9142 1.63445 46.1209 1.06209C44.592 0.650667 43.0699 0.440494 41.6033 0.440494C32.0413 0.440494 26.6816 9.31425 25.266 12.033C25.2394 12.0868 25.1882 12.1225 25.1281 12.1248C25.066 12.1292 25.0105 12.1024 24.975 12.0554C24.2794 11.0941 23.8639 9.35225 23.5305 7.95041C23.3439 7.16581 23.1127 6.18867 22.9528 6.08816L22.8815 6.15524C22.4638 6.59344 22.086 8.53194 22.1973 11.2596C22.2016 11.3489 22.1395 11.4249 22.0505 11.4384C21.9661 11.4496 21.8794 11.3938 21.8594 11.3086C21.1572 8.43349 19.8328 4.82941 15.764 2.46164C13.4553 1.11566 10.6865 0.344336 8.1664 0.344336C6.1444 0.344336 3.34669 0.851912 1.51333 3.27325C-0.0244485 5.31226 0.22449 7.27296 0.708942 8.55872C1.62005 10.9844 4.09987 12.9877 6.87756 13.5468C8.282 13.8284 9.85095 14.0587 11.3707 14.2801C15.1085 14.8234 18.9729 15.3891 20.9995 16.8155C23.3883 18.4969 23.4593 22.13 23.5528 28.1376Z" fill="#559649"/>
<path d="M35.1345 50.3079C35.1345 50.3079 38.1766 50.9966 40.1522 53.5544C38.9232 51.3833 37.41 50.2656 34.9302 49.8809C35.0724 50.0643 35.1345 50.3079 35.1345 50.3079Z" fill="#EBD9B3"/>
<path d="M40.1522 53.7265C40.1032 53.7265 40.05 53.7041 40.0188 53.6595C38.1033 51.1823 35.1256 50.4824 35.0944 50.4778C35.0323 50.4622 34.9834 50.413 34.9656 50.3505C34.9656 50.3505 34.9122 50.138 34.7945 49.986C34.7502 49.9324 34.7479 49.8541 34.7834 49.7937C34.8189 49.7332 34.8855 49.6975 34.9568 49.711C37.4277 50.0934 39.0276 51.218 40.3033 53.4671C40.3476 53.5477 40.3253 53.6459 40.2477 53.6997C40.2209 53.7176 40.1854 53.7265 40.1522 53.7265ZM35.2678 50.1625C35.6722 50.2676 37.2277 50.7305 38.7477 51.9087C37.8212 50.9474 36.7123 50.3908 35.2501 50.1135L35.2678 50.1625Z" fill="#BD7A43"/>
<path d="M28.575 54.8914C28.575 54.8914 28.8817 56.3088 28.7927 56.9059C28.7083 57.505 26.8349 60.0718 27.5617 62.0863C27.7394 59.9376 28.4639 58.0348 29.0128 57.3709C29.5639 56.709 29.3439 55.9555 29.3439 55.9555L28.575 54.8914Z" fill="#EBD9B3"/>
<path d="M27.5617 62.2582C27.4905 62.2582 27.4238 62.2136 27.3972 62.1442C26.8349 60.5791 27.7483 58.7391 28.2906 57.6413C28.4594 57.3015 28.6062 57.0087 28.6239 56.8812C28.7083 56.3223 28.4082 54.9427 28.4062 54.9294C28.3884 54.8511 28.4282 54.7685 28.5038 54.7348C28.5793 54.7014 28.6637 54.7259 28.7172 54.7907L29.4838 55.8527C29.495 55.8683 29.5039 55.8862 29.5105 55.9063C29.5193 55.94 29.7482 56.7559 29.1482 57.4826C28.6706 58.0573 27.9172 59.8705 27.7328 62.0996C27.726 62.1802 27.6662 62.2472 27.5838 62.2562L27.5617 62.2582ZM27.8905 59.4076C27.7572 59.7833 27.655 60.1812 27.6018 60.5771C27.6816 60.1634 27.7838 59.7698 27.8905 59.4076ZM28.8817 55.6112C28.9527 56.0606 29.0128 56.6039 28.9662 56.9327C28.9505 57.0355 28.8995 57.1674 28.8239 57.3329L28.8817 57.2612C29.3127 56.7381 29.2149 56.1614 29.1839 56.0293L28.8817 55.6112Z" fill="#BD7A43"/>
<path d="M23.4773 58.0126C23.4773 58.0126 22.3439 58.6832 20.2907 59.4367C18.2373 60.1902 16.4328 61.3887 15.5752 63.0923C16.0997 61.4468 17.2374 60.0226 19.5129 59.1594C21.7884 58.292 23.6195 57.5676 24.035 57.1763C23.5883 57.7622 23.4773 58.0126 23.4773 58.0126Z" fill="#EBD9B3"/>
<path d="M15.5753 63.2645C15.553 63.2645 15.5309 63.2599 15.5086 63.2532C15.4265 63.2175 15.3841 63.1237 15.4108 63.0364C16.0242 61.1181 17.3486 59.7968 19.4507 58.9941C21.4863 58.2205 23.5083 57.4334 23.915 57.049C23.9839 56.9886 24.0861 56.9863 24.1484 57.0467C24.2151 57.1092 24.2283 57.21 24.1728 57.2814C23.7507 57.8359 23.6373 58.0841 23.6373 58.0841C23.6196 58.1177 23.5973 58.1445 23.5661 58.1624C23.5172 58.1915 22.3929 58.8488 20.3486 59.5976C18.7708 60.1789 16.6887 61.2678 15.7309 63.1706C15.6998 63.2287 15.6374 63.2645 15.5753 63.2645ZM23.4305 57.7443C22.6684 58.1198 21.3885 58.6297 19.5751 59.3183C18.2929 59.8058 17.3151 60.4965 16.6286 61.4043C17.7086 60.3646 19.0952 59.6895 20.2284 59.2735C22.024 58.6162 23.1217 58.0147 23.3484 57.8874C23.3661 57.8561 23.3927 57.8068 23.4305 57.7443Z" fill="#BD7A43"/>
<path d="M22.462 61.1739C22.462 61.1739 20.2952 63.356 20.2597 67.3067C19.8574 64.7959 21.0329 62.0259 22.6108 60.548C22.5753 60.9191 22.462 61.1739 22.462 61.1739Z" fill="#EBD9B3"/>
<path d="M20.2598 67.4812C20.1776 67.4812 20.1041 67.4187 20.0909 67.3358C19.6643 64.6729 20.9752 61.8425 22.4952 60.4205C22.5441 60.3713 22.6242 60.36 22.6864 60.3914C22.7508 60.4251 22.7885 60.4921 22.7819 60.5636C22.7419 60.9548 22.6286 61.2321 22.6197 61.2433C22.6108 61.2658 22.6019 61.2813 22.5842 61.2969C22.5664 61.3193 20.4709 63.4792 20.4332 67.309C20.4332 67.3986 20.3642 67.4723 20.273 67.4812H20.2598Z" fill="#BD7A43"/>
<path d="M18.9708 59.3808C18.9708 59.3808 17.4196 57.9344 16.0641 59.2245C14.7131 60.5167 14.6242 60.785 14.6242 60.785C14.6242 60.785 15.1309 59.4033 16.0641 58.824C14.7998 58.7817 13.693 58.9426 12.9888 59.5038C13.9531 58.5649 14.8865 58.2764 16.4352 58.4799C16.8375 58.4932 18.1152 58.0035 19.4375 59.1439L18.9708 59.3808Z" fill="#EBD9B3"/>
<path d="M14.6241 60.9571L14.5863 60.9549L14.584 60.9526L14.5708 60.9482H14.5663C14.4907 60.9191 14.4464 60.8454 14.4552 60.7671L14.4641 60.7357V60.7291L14.4664 60.7222C14.4864 60.6732 14.8664 59.6627 15.5686 58.9919C14.4329 59.0051 13.6242 59.2176 13.0954 59.6379C13.0242 59.6984 12.922 59.6895 12.8597 59.6178C12.7998 59.5507 12.8041 59.4456 12.8685 59.3785C13.6864 58.585 14.4953 58.2427 15.5775 58.2427C15.8462 58.2427 16.1352 58.2629 16.4552 58.3055C16.5264 58.3055 16.6151 58.292 16.7264 58.2764C16.9262 58.2473 17.1708 58.2116 17.4596 58.2116C18.2419 58.2116 18.9263 58.4754 19.5485 59.012C19.5928 59.05 19.6151 59.1059 19.6063 59.1617C19.6017 59.2222 19.5662 59.2714 19.513 59.2982L19.0463 59.5352C18.9839 59.5686 18.9084 59.5576 18.8529 59.5084C18.8463 59.5015 18.1486 58.862 17.3219 58.862C16.9041 58.862 16.5264 59.0253 16.1819 59.3495C14.9574 60.5189 14.7975 60.8273 14.7863 60.8475C14.7597 60.9168 14.6953 60.9571 14.6241 60.9571ZM17.8642 58.5871C18.3973 58.7258 18.8174 59.0276 18.9951 59.173L19.1173 59.1102C18.7307 58.824 18.3152 58.6498 17.8642 58.5871ZM15.682 58.6452C15.8107 58.6452 15.9375 58.6452 16.0686 58.6521C16.1441 58.6542 16.2108 58.7057 16.2285 58.7794C16.2374 58.8085 16.2374 58.8398 16.2285 58.8643C16.3707 58.7682 16.5175 58.6901 16.6686 58.632C16.5842 58.6429 16.5107 58.6521 16.4552 58.6521C16.1063 58.6118 15.8308 58.5894 15.5775 58.5894C15.2175 58.5894 14.8953 58.6297 14.5975 58.7146C14.9219 58.6677 15.2842 58.6452 15.682 58.6452Z" fill="#BD7A43"/>
<path d="M30.8506 49.0782C30.8506 49.0782 31.5105 49.7401 31.5705 50.6479C31.6283 51.5534 31.7082 52.2553 32.6682 53.3016C33.6283 54.3502 34.5706 55.5554 34.5706 55.5554C34.5706 55.5554 33.5304 54.3502 33.0683 53.3016C32.6104 52.2553 32.4084 52.0564 32.2505 51.0101C32.0882 49.9636 31.9082 49.3601 31.5305 49.1387C31.5305 49.1387 31.2306 48.9553 30.8506 49.0782Z" fill="#EBD9B3"/>
<path d="M34.5771 55.7275H34.5705C34.5215 55.7275 34.4726 55.7097 34.4392 55.6694C34.4392 55.6694 34.2503 55.448 33.9925 55.1128C33.6325 54.67 33.0925 54.0194 32.5414 53.4202C31.5771 52.3693 31.4637 51.6427 31.3971 50.6589C31.3438 49.8317 30.7349 49.2058 30.7283 49.1989C30.686 49.1565 30.6682 49.0961 30.6817 49.0359C30.6971 48.9754 30.7394 48.9308 30.797 48.9106C30.9015 48.8793 31.0082 48.8637 31.1172 48.8637C31.4016 48.8637 31.5971 48.9754 31.6171 48.9887C32.077 49.255 32.2592 49.9212 32.4192 50.9831C32.5348 51.7523 32.6682 52.0339 32.9371 52.5974C33.0193 52.7762 33.1148 52.9797 33.2259 53.2325C33.4837 53.8181 33.9326 54.4622 34.2637 54.8958C34.4726 55.1529 34.6214 55.3429 34.677 55.4146C34.7236 55.4459 34.7482 55.4995 34.7482 55.5554C34.7482 55.6515 34.6726 55.7275 34.5771 55.7275ZM31.1859 49.2124C31.3993 49.5032 31.6993 50.0128 31.7393 50.6344C31.7948 51.446 31.8415 52.1436 32.7949 53.1833C32.8192 53.2077 32.8393 53.2325 32.8593 53.2547C32.7703 53.0603 32.6948 52.8925 32.6238 52.745C32.3525 52.1704 32.206 51.8551 32.077 51.0346C31.9393 50.1268 31.7793 49.483 31.4437 49.2884C31.4437 49.2884 31.3372 49.2259 31.1859 49.2124Z" fill="#BD7A43"/>
<path d="M33.0927 53.5789C33.0927 53.5789 32.646 55.6515 33.966 58.3121C33.046 57.277 32.2193 55.3161 32.8016 53.3755C33.0016 53.4648 33.0927 53.5789 33.0927 53.5789Z" fill="#EBD9B3"/>
<path d="M33.9659 58.4866C33.917 58.4866 33.8704 58.4664 33.8371 58.4284C32.8193 57.2814 32.055 55.2579 32.6327 53.324C32.6482 53.2771 32.6837 53.2391 32.7283 53.2167C32.7749 53.1965 32.8239 53.1988 32.8705 53.2167C33.1037 53.3197 33.2148 53.4559 33.2259 53.4717C33.2594 53.5118 33.2726 53.5633 33.2594 53.6148C33.2548 53.6347 32.8505 55.6449 34.0993 58.1937C34.1259 58.2249 34.1459 58.2675 34.1459 58.3121C34.1459 58.4105 34.0549 58.4776 33.9705 58.4866H33.9659ZM32.9037 53.6549C32.6639 54.6455 32.7881 55.6538 33.1103 56.5256C32.7349 55.0702 32.8505 53.9969 32.9037 53.6549Z" fill="#BD7A43"/>
<path d="M13.5107 8.05778C13.4729 8.06442 13.404 8.18072 13.4641 8.18072C18.1928 8.31489 20.1615 11.8006 22.2281 15.5121C22.2948 15.6327 22.4882 15.3935 22.4459 15.2884C20.8837 11.7649 17.9484 7.36705 13.5107 8.05778Z" fill="#559649"/>
<path d="M22.0014 10.0567C21.9948 9.99397 21.9035 10.0789 21.9035 10.1192C21.8726 12.563 22.4503 15.3353 23.6347 17.4886C23.6902 17.5936 23.8459 17.3835 23.817 17.2985C22.9746 14.9285 22.2237 12.5831 22.0014 10.0567Z" fill="#559649"/>
<path d="M35.2654 5.86446C32.5655 6.84825 29.9855 7.65986 27.9078 9.76595C26.2078 11.4943 25.1836 13.8932 24.4568 16.1737C24.3878 16.3928 24.6502 16.2566 24.6946 16.1291C25.5634 13.7189 26.5568 11.454 28.3722 9.60729C30.3012 7.64865 32.8854 7.12092 35.2522 5.98306C35.2965 5.96062 35.3475 5.83539 35.2654 5.86446Z" fill="#559649"/>
<path d="M25.4102 11.3377C24.7257 12.3931 24.548 13.6922 24.4725 14.9285C24.4634 15.0984 24.6657 14.9262 24.6768 14.8323C24.8434 13.6361 24.9301 12.4645 25.4723 11.3601C25.4989 11.3042 25.4411 11.2907 25.4102 11.3377Z" fill="#559649"/>
<path d="M27.3524 16.1268C27.0612 16.3617 26.7169 16.4869 26.3879 16.6634C26.1125 16.8178 25.8791 17.0614 25.659 17.2827C25.2035 17.7388 24.7968 18.365 24.7213 19.0156C24.7035 19.1876 24.9124 19.0266 24.939 18.944C25.1391 18.2375 25.4947 17.7008 26.0101 17.1912C26.4213 16.7887 26.9945 16.6277 27.3745 16.1939C27.3968 16.1648 27.4057 16.0844 27.3524 16.1268Z" fill="#559649"/>
<g style="mix-blend-mode:multiply" opacity="0.6">
<path d="M46.1986 0.905492C48.4363 2.52644 48.0142 5.01715 46.063 7.2329C39.9565 14.1572 27.1391 12.8604 29.6369 10.0902C32.1301 7.32219 39.2677 4.98579 37.29 5.15795C33.5057 5.15795 28.1747 8.79111 30.3257 5.76169C31.7567 3.96399 34.1813 2.37899 36.1832 1.26769C30.4725 3.44085 26.8169 8.67939 25.1125 11.9504C24.1259 10.5911 23.6992 7.5145 23.286 6.36542C23.2726 6.5353 23.2548 6.69854 23.246 6.86613C23.1836 8.1116 23.2792 9.37035 23.6282 10.5709C23.8082 11.1946 24.0681 11.794 24.2592 12.4153C24.3792 12.8135 24.928 14.4992 24.0592 14.4969C23.1615 14.4926 22.9083 13.1599 22.757 12.487C22.5326 11.4563 22.4259 10.3786 22.4015 9.32341C22.3792 8.16952 22.5749 7.04951 22.8682 5.954C22.3615 6.22004 21.8993 8.24782 22.0261 11.2685C21.4993 9.10637 20.5593 6.10144 17.795 3.70025C20.5215 7.17475 20.846 10.6582 19.1171 8.98572C15.1573 4.82484 9.64195 8.3797 11.8817 8.2927C19.3794 7.7739 21.7903 14.7071 20.6706 13.5802C19.5483 12.4513 17.6551 11.2395 13.3485 11.2395C6.45536 11.3267 1.19989 7.7739 2.57997 3.70025C3.22871 1.7819 5.49988 0.748893 7.72189 0.190033C5.23979 0.281612 2.9131 1.14016 1.3776 3.17046C-1.90229 7.50329 2.01997 12.7464 6.84424 13.7167C11.6685 14.687 18.0861 14.9754 20.8992 16.9563C23.2148 18.5864 23.286 22.0607 23.3816 28.2585C23.9659 28.4931 24.8104 28.6452 25.7215 28.2159C25.757 23.172 26.1659 18.327 26.357 17.3654C26.5859 16.2097 29.1702 15.0537 34.8589 14.8211C40.5433 14.5931 44.5031 13.6093 47.8941 9.44842C51.2741 5.29876 49.9117 2.1038 46.1986 0.905492Z" fill="#C5D872"/>
</g>
<g style="mix-blend-mode:screen" opacity="0.9">
<path d="M46.0411 2.23591C44.0232 -0.0336455 39.9945 0.659606 37.4903 1.38628C34.8325 2.15761 32.6369 3.87677 30.9214 6.00987C30.8904 6.04787 30.9214 6.0971 30.9571 6.05451C34.5303 2.21782 41.5966 -0.697592 46.4455 2.8014C46.59 2.9042 46.1476 2.36091 46.0411 2.23591Z" fill="#C6D541"/>
</g>
<g style="mix-blend-mode:screen" opacity="0.9">
<path d="M6.98421 1.082C6.93984 1.09551 6.87544 1.22304 6.94416 1.20518C9.2952 0.713171 11.5707 1.1381 13.7128 2.18667C15.9574 3.28447 17.2929 5.06637 18.7351 7.02043C18.8327 7.15459 19.0149 6.88398 18.9749 6.77454C17.3639 2.36983 11.2863 -0.22803 6.98421 1.082Z" fill="#C6D541"/>
</g>
<g style="mix-blend-mode:multiply" opacity="0.6">
<path d="M28.9213 14.3449C23.9348 16.1089 24.766 19.637 24.8593 22.794C24.9503 25.9532 25.5037 27.7172 24.766 27.809C24.0281 27.9029 24.2126 27.1627 23.9437 21.8148C23.6392 15.7513 19.7217 13.0617 13.5174 13.3188C6.57986 13.5289 2.73998 11.1321 0.770996 9.13109C1.83775 11.3736 4.20425 13.1846 6.84428 13.7167C11.6685 14.6869 18.0861 14.9754 20.8993 16.9563C23.2148 18.5864 23.286 22.0606 23.3816 28.2585C23.966 28.4931 24.8104 28.6452 25.7215 28.2159C25.757 23.172 26.1659 18.327 26.357 17.3654C26.586 16.2097 29.1702 15.0537 34.859 14.8211C40.5434 14.5931 44.5032 13.6093 47.8941 9.44841C48.2718 8.98342 48.5831 8.53194 48.8453 8.09351C44.0299 15.0604 33.7078 12.6479 28.9213 14.3449Z" fill="#C5D872"/>
</g>
<g style="mix-blend-mode:screen" opacity="0.9">
<path d="M22.6548 9.74351C22.4859 8.50056 22.7704 7.41398 22.9303 6.20216C22.9437 6.11035 22.8281 6.20651 22.8215 6.25344C22.277 8.84032 22.1571 11.217 23.5793 13.5914C23.646 13.7077 23.8325 13.4731 23.7882 13.3769C23.2325 12.2052 22.837 11.0313 22.6548 9.74351Z" fill="#C6D541"/>
</g>
<g style="mix-blend-mode:screen">
<path d="M24.1082 36.8529C23.9838 35.5763 24.0104 34.2793 23.9972 32.9983C23.986 31.9408 24.1749 30.8407 23.9483 29.8077C23.9305 29.7317 23.8238 29.8391 23.8327 29.8927C24.0504 31.0866 23.7883 32.5198 23.7794 33.7406C23.7706 34.8473 23.7749 35.9518 23.8327 37.0608C23.966 39.5538 24.3215 42.1539 25.157 44.5128C25.1971 44.6357 25.4283 44.4008 25.3971 44.298C24.686 41.8522 24.3661 39.3837 24.1082 36.8529Z" fill="#EBD9B3"/>
</g>
<path d="M34.9302 49.8809C35.0724 50.0643 35.1345 50.3079 35.1345 50.3079C35.1345 50.3079 38.1766 50.9966 40.1522 53.5544C38.9232 51.3833 37.41 50.2656 34.9302 49.8809Z" fill="#EBD9B3"/>
<path d="M14.6242 60.785C14.6242 60.785 14.7131 60.5166 16.0641 59.2245C17.4196 57.9343 18.9708 59.3808 18.9708 59.3808L19.4375 59.1439C18.1152 58.0035 16.8375 58.4932 16.4352 58.4799C14.8865 58.2764 13.9531 58.5649 12.9888 59.5038C13.693 58.9426 14.7998 58.7817 16.0641 58.824C15.1309 59.4033 14.6242 60.785 14.6242 60.785Z" fill="#EBD9B3"/>
<path d="M34.1523 55.0345C34.3922 55.3475 34.5701 55.5553 34.5701 55.5553C34.5701 55.5553 34.4056 55.3475 34.1523 55.0345Z" fill="#EBD9B3"/>
</svg>
